<mxfile host="app.diagrams.net" agent="Mozilla/5.0 (Macintosh; Intel Mac OS X 10_15_7) AppleWebKit/537.36 (KHTML, like Gecko) Chrome/134.0.0.0 Safari/537.36" version="26.2.5">
  <diagram id="-KNKdC8MD2lTnJiW_7VM" name="Page-1">
    <mxGraphModel dx="1360" dy="919" grid="1" gridSize="10" guides="1" tooltips="1" connect="1" arrows="1" fold="1" page="1" pageScale="1" pageWidth="3300" pageHeight="4681" math="0" shadow="0">
      <root>
        <mxCell id="0" />
        <mxCell id="IT4rPf45ZYRlz2UmnC27-86" value="background" style="locked=1;" parent="0" />
        <mxCell id="IT4rPf45ZYRlz2UmnC27-87" value="" style="fillColor=#EFF0F3;strokeColor=none;dashed=0;verticalAlign=top;fontStyle=0;fontColor=#232F3D;whiteSpace=wrap;html=1;" vertex="1" parent="IT4rPf45ZYRlz2UmnC27-86">
          <mxGeometry x="120" y="90" width="1140" height="710" as="geometry" />
        </mxCell>
        <mxCell id="IT4rPf45ZYRlz2UmnC27-193" style="edgeStyle=orthogonalEdgeStyle;rounded=0;orthogonalLoop=1;jettySize=auto;html=1;entryX=1;entryY=0.5;entryDx=0;entryDy=0;" edge="1" parent="IT4rPf45ZYRlz2UmnC27-86" source="IT4rPf45ZYRlz2UmnC27-175" target="IT4rPf45ZYRlz2UmnC27-162">
          <mxGeometry relative="1" as="geometry" />
        </mxCell>
        <mxCell id="IT4rPf45ZYRlz2UmnC27-194" value="" style="editableCssRules=.*;html=1;shape=image;verticalLabelPosition=bottom;labelBackgroundColor=#ffffff;verticalAlign=top;aspect=fixed;imageAspect=0;image=data:image/svg+xml,PHN2ZyB4bWxucz0iaHR0cDovL3d3dy53My5vcmcvMjAwMC9zdmciIHhtbG5zOnY9Imh0dHBzOi8vdmVjdGEuaW8vbmFubyIgd2lkdGg9IjcwMi44NDYzMTM0NzY1NjI1IiBoZWlnaHQ9IjY4MS45NjcxMDIwNTA3ODEyIiB2aWV3Qm94PSIxMC4wMDEwMjYxNTM1NjQ0NTMgMTAuMDAwOTMzNjQ3MTU1NzYyIDcwMi44NDYzMTM0NzY1NjI1IDY4MS45NjcxMDIwNTA3ODEyIj4mI3hhOwk8c3R5bGUgdHlwZT0idGV4dC9jc3MiPiYjeGE7CS5zdDB7ZmlsbDojMzI2Y2U1O30mI3hhOwkuc3Qxe2ZpbGw6I2ZmZjt9JiN4YTsJPC9zdHlsZT4mI3hhOwk8cGF0aCBjbGFzcz0ic3QwIiBkPSJNMzU4Ljk4NyAxMC4wNmMtNi4yMTMuMzEzLTEyLjMwMSAxLjg1NC0xNy45MDYgNC41MzFMOTYuNzM3IDEzMS4zNDJjLTEyLjgxMSA2LjExOC0yMi4xMTYgMTcuNjg5LTI1LjI4MSAzMS40MzhsLTYwLjI4MSAyNjIuMjVjLTIuODEyIDEyLjIwNy0uNTI0IDI1LjAyNCA2LjM0NCAzNS41MzFhNDYuMzUgNDYuMzUgMCAwIDAgMi42NTYgMy42ODhsMTY5LjEyNSAyMTAuMjgxYzguODY4IDExLjAyMiAyMi4zMTMgMTcuNDQgMzYuNTMxIDE3LjQzOGwyNzEuMjE5LS4wNjJjMTQuMjEyLjAxIDI3LjY1Ny02LjM5NiAzNi41MzEtMTcuNDA2bDE2OS4wNjMtMjEwLjMxM2M4Ljg3My0xMS4wMjggMTIuMTk3LTI1LjQ2NCA5LjAzMS0zOS4yMTlsLTYwLjM3NS0yNjIuMjVjLTMuMTY1LTEzLjc0OC0xMi40Ny0yNS4zMTktMjUuMjgxLTMxLjQzN0wzODEuNjQzIDE0LjU5MmMtNy4wNS0zLjM2OC0xNC44NDEtNC45MjYtMjIuNjU2LTQuNTMxeiIvPiYjeGE7CTxwYXRoIGNsYXNzPSJzdDEgc3QyIiBkPSJNMzYxLjQwOCA5OS4zMDhjLTguMDc3LjAwMS0xNC42MjYgNy4yNzYtMTQuNjI1IDE2LjI1IDAgLjEzOC4wMjguMjY5LjAzMS40MDYtLjAxMiAxLjIxOS0uMDcxIDIuNjg4LS4wMzEgMy43NS4xOTMgNS4xNzYgMS4zMjEgOS4xMzcgMiAxMy45MDYgMS4yMyAxMC4yMDcgMi4yNjEgMTguNjY3IDEuNjI1IDI2LjUzMS0uNjE5IDIuOTY1LTIuODAzIDUuNjc3LTQuNzUgNy41NjNsLS4zNDQgNi4xODhjLTguNzc3LjcyNy0xNy42MTIgMi4wNTktMjYuNDM3IDQuMDYzLTM3Ljk3NSA4LjYyMi03MC42NyAyOC4xODMtOTUuNTYyIDU0LjU5NC0xLjYxNS0xLjEwMi00LjQ0MS0zLjEyOS01LjI4MS0zLjc1LTIuNjExLjM1My01LjI1IDEuMTU4LTguNjg3LS44NDQtNi41NDUtNC40MDYtMTIuNTA2LTEwLjQ4Ny0xOS43MTktMTcuODEyLTMuMzA1LTMuNTA0LTUuNjk4LTYuODQxLTkuNjI1LTEwLjIxOS0uODkyLS43NjctMi4yNTMtMS44MDUtMy4yNS0yLjU5NC0zLjA3LTIuNDQ4LTYuNjkxLTMuNzI0LTEwLjE4Ny0zLjg0NC00LjQ5Ni0uMTU0LTguODI0IDEuNjA0LTExLjY1NiA1LjE1Ni01LjAzNSA2LjMxNS0zLjQyMyAxNS45NjggMy41OTQgMjEuNTYzLjA3MS4wNTcuMTQ3LjEwMS4yMTkuMTU2Ljk2NC43ODIgMi4xNDUgMS43ODMgMy4wMzEgMi40MzggNC4xNjcgMy4wNzcgNy45NzMgNC42NTEgMTIuMTI1IDcuMDk0IDguNzQ3IDUuNDAyIDE1Ljk5OCA5Ljg4MSAyMS43NSAxNS4yODEgMi4yNDYgMi4zOTQgMi42MzkgNi42MTMgMi45MzggOC40MzhsNC42ODggNC4xODhjLTI1LjA5MyAzNy43NjQtMzYuNzA3IDg0LjQwOS0yOS44NDQgMTMxLjkzOGwtNi4xMjUgMS43ODFjLTEuNjE0IDIuMDg1LTMuODk1IDUuMzY1LTYuMjgxIDYuMzQ0LTcuNTI1IDIuMzctMTUuOTk0IDMuMjQxLTI2LjIxOSA0LjMxMy00LjguMzk5LTguOTQyLjE2MS0xNC4wMzEgMS4xMjUtMS4xMi4yMTItMi42ODEuNjE5LTMuOTA2LjkwNi0uMDQzLjAwOS0uMDgyLjAyMi0uMTI1LjAzMS0uMDY3LjAxNS0uMTU1LjA0OC0uMjE5LjA2My04LjYyIDIuMDgzLTE0LjE1OCAxMC4wMDYtMTIuMzc1IDE3LjgxM3MxMC4yMDMgMTIuNTU3IDE4Ljg3NSAxMC42ODhjLjA2My0uMDE0LjE1NC0uMDE3LjIxOS0uMDMxLjA5OC0uMDIyLjE4NC0uMDcuMjgxLS4wOTQgMS4yMDktLjI2NSAyLjcyNC0uNTYxIDMuNzgxLS44NDQgNS4wMDMtMS4zNCA4LjYyNy0zLjMwOCAxMy4xMjUtNS4wMzEgOS42NzctMy40NzEgMTcuNjkyLTYuMzcgMjUuNS03LjUgMy4yNjEtLjI1NSA2LjY5NyAyLjAxMiA4LjQwNiAyLjk2OWw2LjM3NS0xLjA5NGMxNC42NyA0NS40ODMgNDUuNDE0IDgyLjI0NSA4NC4zNDQgMTA1LjMxMmwtMi42NTYgNi4zNzVjLjk1NyAyLjQ3NSAyLjAxMyA1LjgyNSAxLjMgOC4yNjktMi44MzkgNy4zNjEtNy43MDEgMTUuMTMxLTEzLjIzOCAyMy43OTMtMi42ODEgNC4wMDItNS40MjUgNy4xMDgtNy44NDQgMTEuNjg4LS41NzkgMS4wOTYtMS4zMTYgMi43NzktMS44NzUgMy45MzgtMy43NTkgOC4wNDItMS4wMDIgMTcuMzA1IDYuMjE5IDIwLjc4MSA3LjI2NiAzLjQ5OCAxNi4yODQtLjE5MSAyMC4xODctOC4yNS4wMDYtLjAxMS4wMjYtLjAyLjAzMS0uMDMxcy0uMDA0LS4wMjMgMC0uMDMxYy41NTYtMS4xNDMgMS4zNDQtMi42NDQgMS44MTMtMy43MTkgMi4wNzItNC43NDcgMi43NjItOC44MTUgNC4yMTktMTMuNDA2IDMuODctOS43MiA1Ljk5Ni0xOS45MTkgMTEuMzIzLTI2LjI3NCAxLjQ1OS0xLjc0IDMuODM3LTIuNDA5IDYuMzAyLTMuMDdsMy4zMTMtNmMzMy45MzggMTMuMDI3IDcxLjkyNyAxNi41MjIgMTA5Ljg3NSA3LjkwNmExODkuNzcgMTg5Ljc3IDAgMCAwIDI1LjA5NC03LjU2MmwzLjEyNSA1LjYyNWMyLjUwNi44MTUgNS4yNCAxLjIzNiA3LjQ2OSA0LjUzMSAzLjk4NSA2LjgwOSA2LjcxMSAxNC44NjQgMTAuMDMxIDI0LjU5NCAxLjQ1NyA0LjU5MSAyLjE3OCA4LjY1OSA0LjI1IDEzLjQwNi40NzIgMS4wODIgMS4yNTYgMi42MDUgMS44MTMgMy43NSAzLjg5NSA4LjA4NSAxMi45NDIgMTEuNzg3IDIwLjIxOSA4LjI4MSA3LjIxOS0zLjQ3OCA5Ljk4LTEyLjc0IDYuMjE5LTIwLjc4MWwtMS45MDYtMy45MzdjLTIuNDE5LTQuNTgtNS4xNjMtNy42NTQtNy44NDQtMTEuNjU2LTUuNTM3LTguNjYyLTEwLjEzLTE1Ljg1OC0xMi45NjktMjMuMjE5LTEuMTg3LTMuNzk3LjItNi4xNTggMS4xMjUtOC42MjUtLjU1NC0uNjM1LTEuNzM5LTQuMjItMi40MzctNS45MDYgNDAuNDU3LTIzLjg4OCA3MC4yOTktNjIuMDIxIDg0LjMxMy0xMDYuMDYyIDEuODkyLjI5NyA1LjE4Mi44NzkgNi4yNSAxLjA5NCAyLjItMS40NTEgNC4yMjItMy4zNDQgOC4xODgtMy4wMzEgNy44MDggMS4xMjkgMTUuODIzIDQuMDMgMjUuNSA3LjUgNC40OTggMS43MjMgOC4xMjIgMy43MjMgMTMuMTI1IDUuMDYzIDEuMDU3LjI4MyAyLjU3Mi41NDcgMy43ODEuODEzLjA5Ny4wMjQuMTgzLjA3MS4yODEuMDk0LjA2NS4wMTUuMTU2LjAxNy4yMTkuMDMxIDguNjcyIDEuODY3IDE3LjA5NC0yLjg3OSAxOC44NzUtMTAuNjg3cy0zLjc1NC0xNS43MzItMTIuMzc1LTE3LjgxMmMtMS4yNTQtLjI4NS0zLjAzMi0uNzY5LTQuMjUtMS01LjA4OS0uOTY0LTkuMjMxLS43MjYtMTQuMDMxLTEuMTI1LTEwLjIyNS0xLjA3MS0xOC42OTMtMS45NDMtMjYuMjE5LTQuMzEyLTMuMDY4LTEuMTktNS4yNTEtNC44NDEtNi4zMTMtNi4zNDRsLTUuOTA2LTEuNzE5YzMuMDYyLTIyLjE1NCAyLjIzNy00NS4yMTEtMy4wNjItNjguMjgxLTUuMzQ4LTIzLjI4NS0xNC44LTQ0LjU4MS0yNy40MDYtNjMuMzQ0bDUuMTg4LTQuNjU2Yy4yMzctMi42MjQuMDMzLTUuMzc2IDIuNzUtOC4yODEgNS43NTEtNS40MDEgMTMuMDAzLTkuODc5IDIxLjc1LTE1LjI4MSA0LjE1Mi0yLjQ0MyA3Ljk5LTQuMDE3IDEyLjE1Ni03LjA5NC45NDItLjY5NiAyLjIyOS0xLjc5OCAzLjIxOS0yLjU5NCA3LjAxNS01LjU5NiA4LjYzMS0xNS4yNDggMy41OTQtMjEuNTYycy0xNC43OTctNi45MDktMjEuODEyLTEuMzEyYy0uOTk5Ljc5MS0yLjM1NCAxLjgyMy0zLjI1IDIuNTk0LTMuOTI3IDMuMzc4LTYuMzUxIDYuNzE0LTkuNjU2IDEwLjIxOS03LjIxMiA3LjMyNi0xMy4xNzQgMTMuNDM4LTE5LjcxOSAxNy44NDQtMi44MzYgMS42NTEtNi45OSAxLjA4LTguODc1Ljk2OWwtNS41NjIgMy45NjljLTMxLjcxOS0zMy4yNjEtNzQuOTA1LTU0LjUyNS0xMjEuNDA2LTU4LjY1NmwtLjM0NC02LjUzMWMtMS45MDQtMS44MjItNC4yMDMtMy4zNzctNC43ODEtNy4zMTItLjYzNi03Ljg2NC40MjYtMTYuMzI1IDEuNjU2LTI2LjUzMS42NzktNC43NjkgMS44MDctOC43MyAyLTEzLjkwNi4wNDQtMS4xNzctLjAyNi0yLjg4NC0uMDMxLTQuMTU2LS4wMDEtOC45NzQtNi41NDgtMTYuMjUxLTE0LjYyNS0xNi4yNXptLTE4LjMxMiAxMTMuNDM4bC00LjM0NCA3Ni43MTktLjMxMi4xNTZjLS4yOTEgNi44NjMtNS45NCAxMi4zNDQtMTIuODc1IDEyLjM0NGExMi44MiAxMi44MiAwIDAgMS03LjU5NC0yLjQ2OWwtLjEyNS4wNjMtNjIuOTA2LTQ0LjU5NGMxOS4zMzQtMTkuMDExIDQ0LjA2My0zMy4wNiA3Mi41NjItMzkuNTMxIDUuMjA2LTEuMTgyIDEwLjQxLTIuMDU5IDE1LjU5NC0yLjY4N3ptMzYuNjU2IDBjMzMuMjczIDQuMDkyIDY0LjA0NSAxOS4xNTkgODcuNjI1IDQyLjI1bC02Mi41IDQ0LjMxMy0uMjE5LS4wOTRhMTIuOTEgMTIuOTEgMCAwIDEtMTcuNjg3LTIuMzc1Yy0xLjc3MS0yLjIyMS0yLjcwMS00LjgzMi0yLjgxMi03LjQ2OWwtLjA2Mi0uMDMxek0yMzIuMTI2IDI4My42Mmw1Ny40MzcgNTEuMzc1LS4wNjIuMzEzYTEyLjg4IDEyLjg4IDAgMCAxIDEuNjI1IDE3Ljc1IDEyLjg5IDEyLjg5IDAgMCAxLTYuNjg3IDQuNDA2bC0uMDYyLjI1LTczLjYyNSAyMS4yNWMtMy43NDctMzQuMjY1IDQuMzI5LTY3LjU3NCAyMS4zNzUtOTUuMzQ0em0yNTguMTU2LjAzMWM4LjUzNCAxMy44MzMgMTQuOTk3IDI5LjI4MiAxOC44NDQgNDYuMDMxIDMuODAxIDE2LjU0OCA0Ljc1NSAzMy4wNjcgMy4xODggNDkuMDMxbC03NC0yMS4zMTItLjA2Mi0uMzEyYy02LjYyNy0xLjgxMS0xMC42OTktOC41NTItOS4xNTYtMTUuMzEyLjYzMi0yLjc3IDIuMTAyLTUuMTEzIDQuMDk0LTYuODQ0bC0uMDMxLS4xNTYgNTcuMTI1LTUxLjEyNXptLTE0MC42NTYgNTUuMzEzaDIzLjUzMWwxNC42MjUgMTguMjgxLTUuMjUgMjIuODEzLTIxLjEyNSAxMC4xNTYtMjEuMTg3LTEwLjE4Ny01LjI1LTIyLjgxMnptNzUuNDM4IDYyLjU2M2ExMi44MyAxMi44MyAwIDAgMSAyLjk2OS4yMTlsLjEyNS0uMTU2IDc2LjE1NiAxMi44NzVjLTExLjE0NiAzMS4zMTMtMzIuNDczIDU4LjQ0LTYwLjk2OSA3Ni41OTRsLTI5LjU2Mi03MS40MDYuMDk0LS4xMjVjLTIuNzE2LTYuMzEuMDAyLTEzLjcxIDYuMjUtMTYuNzE5IDEuNi0uNzcgMy4yNzEtMS4xOTcgNC45MzgtMS4yODF6bS0xMjcuOTA2LjMxM2ExMi45IDEyLjkgMCAwIDEgMTIuMzc1IDEwLjAzMSAxMi43NyAxMi43NyAwIDAgMS0uNzE5IDcuOTM4bC4yMTkuMjgxLTI5LjI1IDcwLjY4OGMtMjcuMzQ3LTE3LjU0OS00OS4xMjktNDMuODI0LTYwLjc4MS03Ni4wNjJsNzUuNS0xMi44MTIuMTI1LjE1NmMuODQ1LS4xNTUgMS43MDEtLjIzIDIuNTMxLS4yMTl6bTYzLjc4MSAzMC45NjljMi4wMjQtLjA3NCA0LjA3OS4zNDEgNi4wMzEgMS4yODEgMi41NiAxLjIzMyA0LjUzNyAzLjE3MyA1Ljc4MSA1LjVoLjI4MWwzNy4yMTkgNjcuMjVjLTQuODMgMS42MTktOS43OTYgMy4wMDMtMTQuODc1IDQuMTU2LTI4LjQ2NSA2LjQ2My01Ni44MzkgNC41MDUtODIuNTMxLTQuMjVsMzcuMTI1LTY3LjEyNWguMDYzYTEyLjkxIDEyLjkxIDAgMCAxIDEwLjkwNi02LjgxMnoiIHN0cm9rZT0ibm9uZSIgc3Ryb2tlLXdpZHRoPSIuMjUiLz4mI3hhOzwvc3ZnPg==;fontColor=default;" vertex="1" parent="IT4rPf45ZYRlz2UmnC27-86">
          <mxGeometry x="130" y="100" width="40" height="38" as="geometry" />
        </mxCell>
        <mxCell id="IT4rPf45ZYRlz2UmnC27-199" value="" style="group" vertex="1" connectable="0" parent="IT4rPf45ZYRlz2UmnC27-86">
          <mxGeometry x="865" y="840" width="80" height="40" as="geometry" />
        </mxCell>
        <mxCell id="IT4rPf45ZYRlz2UmnC27-198" value="" style="fillColor=#EFF0F3;strokeColor=none;dashed=0;verticalAlign=top;fontStyle=0;fontColor=#232F3D;whiteSpace=wrap;html=1;" vertex="1" parent="IT4rPf45ZYRlz2UmnC27-199">
          <mxGeometry width="80" height="40" as="geometry" />
        </mxCell>
        <mxCell id="IT4rPf45ZYRlz2UmnC27-197" value="" style="shape=image;verticalLabelPosition=bottom;labelBackgroundColor=default;verticalAlign=top;aspect=fixed;imageAspect=0;editableCssRules=.*;image=data:image/svg+xml,PHN2ZyB4bWxucz0iaHR0cDovL3d3dy53My5vcmcvMjAwMC9zdmciIHZpZXdCb3g9IjAgMCA1MTIgMjEzLjA0ODAwNDE1MDM5MDYyIiBoZWlnaHQ9IjMxLjg1NzY0NTQ4MDQzMjI0MyIgd2lkdGg9Ijc2LjU3Ij48cGF0aCBkPSJNNTEyIDExMC4wOGMwLTM2LjQwOS0xNy42MzYtNjUuMTM4LTUxLjM0Mi02NS4xMzhjLTMzLjg1IDAtNTQuMzMgMjguNzMtNTQuMzMgNjQuODU0YzAgNDIuODA4IDI0LjE3OSA2NC40MjYgNTguODggNjQuNDI2YzE2LjkyNSAwIDI5LjcyNS0zLjg0IDM5LjM5Ni05LjI0NHYtMjguNDQ1Yy05LjY3IDQuODM2LTIwLjc2NCA3LjgyMy0zNC44NDQgNy44MjNjLTEzLjc5NiAwLTI2LjAyNy00LjgzNi0yNy41OTEtMjEuNjE4aDY5LjU0N2MwLTEuODUuMjg0LTkuMjQ1LjI4NC0xMi42NThtLTcwLjI1OC0xMy41MTFjMC0xNi4wNzEgOS44MTQtMjIuNzU2IDE4Ljc3NC0yMi43NTZjOC42NzUgMCAxNy45MiA2LjY4NSAxNy45MiAyMi43NTZ6bS05MC4zMS01MS42MjdjLTEzLjkzOSAwLTIyLjg5OSA2LjU0Mi0yNy44NzYgMTEuMDk0bC0xLjg1LTguODE4aC0zMS4yODh2MTY1LjgzbDM1LjU1NS03LjUzN2wuMTQzLTQwLjI0OWM1LjEyIDMuNjk4IDEyLjY1NyA4Ljk2IDI1LjE3MyA4Ljk2YzI1LjQ1OCAwIDQ4LjY0LTIwLjQ4IDQ4LjY0LTY1LjU2NGMtLjE0Mi00MS4yNDUtMjMuNjA5LTYzLjcxNi00OC40OTgtNjMuNzE2bS04LjUzNCA5Ny45OTFjLTguMzkxIDAtMTMuMzctMi45ODYtMTYuNzgyLTYuNjg0bC0uMTQzLTUyLjc2NWMzLjY5OC00LjEyNCA4LjgxOC02Ljk2OCAxNi45MjUtNi45NjhjMTIuOTQyIDAgMjEuOTAyIDE0LjUwNiAyMS45MDIgMzMuMTM3YzAgMTkuMDU4LTguODE4IDMzLjI4LTIxLjkwMiAzMy4yOE0yNDEuNDkzIDM2LjU1MWwzNS42OTgtNy42OFYwbC0zNS42OTggNy41Mzh6bTAgMTAuODA5aDM1LjY5OHYxMjQuNDQ0aC0zNS42OTh6bS0zOC4yNTcgMTAuNTI0TDIwMC45NiA0Ny4zNmgtMzAuNzJ2MTI0LjQ0NGgzNS41NTZWODcuNDY3YzguMzktMTAuOTUxIDIyLjYxMy04Ljk2IDI3LjAyMi03LjM5NlY0Ny4zNmMtNC41NTEtMS43MDctMjEuMTkxLTQuODM2LTI5LjU4MiAxMC41MjRtLTcxLjExMi00MS4zODZsLTM0LjcwMiA3LjM5NWwtLjE0MiAxMTMuOTJjMCAyMS4wNSAxNS43ODcgMzYuNTUxIDM2LjgzNiAzNi41NTFjMTEuNjYyIDAgMjAuMTk1LTIuMTMzIDI0Ljg4OC00LjY5M1YxNDAuOGMtNC41NSAxLjg0OS0yNy4wMjIgOC4zOTEtMjcuMDIyLTEyLjY1OFY3Ny42NTNoMjcuMDIyVjQ3LjM2aC0yNy4wMjJ6TTM1Ljk4MiA4My40ODRjMC01LjU0NiA0LjU1MS03LjY4IDEyLjA5LTcuNjhjMTAuODA4IDAgMjQuNDYxIDMuMjcyIDM1LjI3IDkuMTAzVjUxLjQ4NGMtMTEuODA0LTQuNjkzLTIzLjQ2Ni02LjU0Mi0zNS4yNy02LjU0MkMxOS4yIDQ0Ljk0MiAwIDYwLjAxOCAwIDg1LjE5MmMwIDM5LjI1MiA1NC4wNDQgMzIuOTk1IDU0LjA0NCA0OS45MmMwIDYuNTQxLTUuNjg4IDguNjc1LTEzLjY1MyA4LjY3NWMtMTEuODA0IDAtMjYuODgtNC44MzYtMzguODI3LTExLjM3OHYzMy44NDljMTMuMjI3IDUuNjg5IDI2LjU5NiA4LjEwNiAzOC44MjcgOC4xMDZjMjkuNTgyIDAgNDkuOTItMTQuNjQ4IDQ5LjkyLTQwLjEwNmMtLjE0Mi00Mi4zODItNTQuMzI5LTM0Ljg0NS01NC4zMjktNTAuNzc0IiBmaWxsPSIjNjM1QkZGIi8+PC9zdmc+;" vertex="1" parent="IT4rPf45ZYRlz2UmnC27-199">
          <mxGeometry x="15.940000000000055" y="10" width="48.13" height="20" as="geometry" />
        </mxCell>
        <mxCell id="IT4rPf45ZYRlz2UmnC27-200" style="edgeStyle=orthogonalEdgeStyle;rounded=0;orthogonalLoop=1;jettySize=auto;html=1;" edge="1" parent="IT4rPf45ZYRlz2UmnC27-86" source="IT4rPf45ZYRlz2UmnC27-177">
          <mxGeometry relative="1" as="geometry">
            <mxPoint x="905" y="840" as="targetPoint" />
          </mxGeometry>
        </mxCell>
        <mxCell id="1" value="icons" style="locked=1;" parent="0" />
        <mxCell id="IT4rPf45ZYRlz2UmnC27-40" style="edgeStyle=orthogonalEdgeStyle;rounded=0;orthogonalLoop=1;jettySize=auto;html=1;" edge="1" parent="1" source="IT4rPf45ZYRlz2UmnC27-1" target="IT4rPf45ZYRlz2UmnC27-8">
          <mxGeometry relative="1" as="geometry" />
        </mxCell>
        <mxCell id="IT4rPf45ZYRlz2UmnC27-1" value="admin.esd.local" style="aspect=fixed;sketch=0;html=1;dashed=0;whitespace=wrap;verticalLabelPosition=bottom;verticalAlign=top;fillColor=#2875E2;strokeColor=#ffffff;points=[[0.005,0.63,0],[0.1,0.2,0],[0.9,0.2,0],[0.5,0,0],[0.995,0.63,0],[0.72,0.99,0],[0.5,1,0],[0.28,0.99,0]];shape=mxgraph.kubernetes.icon2;prIcon=ing" vertex="1" parent="1">
          <mxGeometry x="160" y="160" width="41.67" height="40" as="geometry" />
        </mxCell>
        <mxCell id="IT4rPf45ZYRlz2UmnC27-41" style="edgeStyle=orthogonalEdgeStyle;rounded=0;orthogonalLoop=1;jettySize=auto;html=1;" edge="1" parent="1" source="IT4rPf45ZYRlz2UmnC27-5" target="IT4rPf45ZYRlz2UmnC27-9">
          <mxGeometry relative="1" as="geometry" />
        </mxCell>
        <mxCell id="IT4rPf45ZYRlz2UmnC27-5" value="customer.esd.local" style="aspect=fixed;sketch=0;html=1;dashed=0;whitespace=wrap;verticalLabelPosition=bottom;verticalAlign=top;fillColor=#2875E2;strokeColor=#ffffff;points=[[0.005,0.63,0],[0.1,0.2,0],[0.9,0.2,0],[0.5,0,0],[0.995,0.63,0],[0.72,0.99,0],[0.5,1,0],[0.28,0.99,0]];shape=mxgraph.kubernetes.icon2;prIcon=ing" vertex="1" parent="1">
          <mxGeometry x="160" y="280" width="41.67" height="40" as="geometry" />
        </mxCell>
        <mxCell id="IT4rPf45ZYRlz2UmnC27-42" style="edgeStyle=orthogonalEdgeStyle;rounded=0;orthogonalLoop=1;jettySize=auto;html=1;" edge="1" parent="1" source="IT4rPf45ZYRlz2UmnC27-6" target="IT4rPf45ZYRlz2UmnC27-10">
          <mxGeometry relative="1" as="geometry" />
        </mxCell>
        <mxCell id="IT4rPf45ZYRlz2UmnC27-6" value="driver.esd.local" style="aspect=fixed;sketch=0;html=1;dashed=0;whitespace=wrap;verticalLabelPosition=bottom;verticalAlign=top;fillColor=#2875E2;strokeColor=#ffffff;points=[[0.005,0.63,0],[0.1,0.2,0],[0.9,0.2,0],[0.5,0,0],[0.995,0.63,0],[0.72,0.99,0],[0.5,1,0],[0.28,0.99,0]];shape=mxgraph.kubernetes.icon2;prIcon=ing" vertex="1" parent="1">
          <mxGeometry x="160" y="390" width="41.67" height="40" as="geometry" />
        </mxCell>
        <mxCell id="IT4rPf45ZYRlz2UmnC27-43" style="edgeStyle=orthogonalEdgeStyle;rounded=0;orthogonalLoop=1;jettySize=auto;html=1;" edge="1" parent="1" source="IT4rPf45ZYRlz2UmnC27-7" target="IT4rPf45ZYRlz2UmnC27-11">
          <mxGeometry relative="1" as="geometry" />
        </mxCell>
        <mxCell id="IT4rPf45ZYRlz2UmnC27-7" value="api.esd.local" style="aspect=fixed;sketch=0;html=1;dashed=0;whitespace=wrap;verticalLabelPosition=bottom;verticalAlign=top;fillColor=#2875E2;strokeColor=#ffffff;points=[[0.005,0.63,0],[0.1,0.2,0],[0.9,0.2,0],[0.5,0,0],[0.995,0.63,0],[0.72,0.99,0],[0.5,1,0],[0.28,0.99,0]];shape=mxgraph.kubernetes.icon2;prIcon=ing" vertex="1" parent="1">
          <mxGeometry x="160" y="500" width="41.67" height="40" as="geometry" />
        </mxCell>
        <mxCell id="IT4rPf45ZYRlz2UmnC27-30" style="edgeStyle=orthogonalEdgeStyle;rounded=0;orthogonalLoop=1;jettySize=auto;html=1;entryX=0.005;entryY=0.63;entryDx=0;entryDy=0;entryPerimeter=0;" edge="1" parent="1" source="IT4rPf45ZYRlz2UmnC27-8" target="IT4rPf45ZYRlz2UmnC27-13">
          <mxGeometry relative="1" as="geometry">
            <mxPoint x="400" y="180.00000000000006" as="targetPoint" />
          </mxGeometry>
        </mxCell>
        <mxCell id="IT4rPf45ZYRlz2UmnC27-8" value="" style="aspect=fixed;sketch=0;html=1;dashed=0;whitespace=wrap;verticalLabelPosition=bottom;verticalAlign=top;fillColor=#2875E2;strokeColor=#ffffff;points=[[0.005,0.63,0],[0.1,0.2,0],[0.9,0.2,0],[0.5,0,0],[0.995,0.63,0],[0.72,0.99,0],[0.5,1,0],[0.28,0.99,0]];shape=mxgraph.kubernetes.icon2;kubernetesLabel=1;prIcon=svc" vertex="1" parent="1">
          <mxGeometry x="288" y="160" width="41.67" height="40" as="geometry" />
        </mxCell>
        <mxCell id="IT4rPf45ZYRlz2UmnC27-9" value="" style="aspect=fixed;sketch=0;html=1;dashed=0;whitespace=wrap;verticalLabelPosition=bottom;verticalAlign=top;fillColor=#2875E2;strokeColor=#ffffff;points=[[0.005,0.63,0],[0.1,0.2,0],[0.9,0.2,0],[0.5,0,0],[0.995,0.63,0],[0.72,0.99,0],[0.5,1,0],[0.28,0.99,0]];shape=mxgraph.kubernetes.icon2;kubernetesLabel=1;prIcon=svc" vertex="1" parent="1">
          <mxGeometry x="288" y="280" width="41.67" height="40" as="geometry" />
        </mxCell>
        <mxCell id="IT4rPf45ZYRlz2UmnC27-10" value="" style="aspect=fixed;sketch=0;html=1;dashed=0;whitespace=wrap;verticalLabelPosition=bottom;verticalAlign=top;fillColor=#2875E2;strokeColor=#ffffff;points=[[0.005,0.63,0],[0.1,0.2,0],[0.9,0.2,0],[0.5,0,0],[0.995,0.63,0],[0.72,0.99,0],[0.5,1,0],[0.28,0.99,0]];shape=mxgraph.kubernetes.icon2;kubernetesLabel=1;prIcon=svc" vertex="1" parent="1">
          <mxGeometry x="288" y="390" width="41.67" height="40" as="geometry" />
        </mxCell>
        <mxCell id="IT4rPf45ZYRlz2UmnC27-11" value="" style="aspect=fixed;sketch=0;html=1;dashed=0;whitespace=wrap;verticalLabelPosition=bottom;verticalAlign=top;fillColor=#2875E2;strokeColor=#ffffff;points=[[0.005,0.63,0],[0.1,0.2,0],[0.9,0.2,0],[0.5,0,0],[0.995,0.63,0],[0.72,0.99,0],[0.5,1,0],[0.28,0.99,0]];shape=mxgraph.kubernetes.icon2;kubernetesLabel=1;prIcon=svc" vertex="1" parent="1">
          <mxGeometry x="288" y="500" width="41.67" height="40" as="geometry" />
        </mxCell>
        <mxCell id="IT4rPf45ZYRlz2UmnC27-17" value="" style="group" vertex="1" connectable="0" parent="1">
          <mxGeometry x="400" y="152.20000000000002" width="25" height="55.599999999999994" as="geometry" />
        </mxCell>
        <mxCell id="IT4rPf45ZYRlz2UmnC27-13" value="" style="aspect=fixed;sketch=0;html=1;dashed=0;whitespace=wrap;verticalLabelPosition=bottom;verticalAlign=top;fillColor=#2875E2;strokeColor=#ffffff;points=[[0.005,0.63,0],[0.1,0.2,0],[0.9,0.2,0],[0.5,0,0],[0.995,0.63,0],[0.72,0.99,0],[0.5,1,0],[0.28,0.99,0]];shape=mxgraph.kubernetes.icon2;prIcon=pod" vertex="1" parent="IT4rPf45ZYRlz2UmnC27-17">
          <mxGeometry width="25" height="24" as="geometry" />
        </mxCell>
        <mxCell id="IT4rPf45ZYRlz2UmnC27-14" value="" style="aspect=fixed;sketch=0;html=1;dashed=0;whitespace=wrap;verticalLabelPosition=bottom;verticalAlign=top;fillColor=#2875E2;strokeColor=#ffffff;points=[[0.005,0.63,0],[0.1,0.2,0],[0.9,0.2,0],[0.5,0,0],[0.995,0.63,0],[0.72,0.99,0],[0.5,1,0],[0.28,0.99,0]];shape=mxgraph.kubernetes.icon2;prIcon=pod" vertex="1" parent="IT4rPf45ZYRlz2UmnC27-17">
          <mxGeometry y="31.599999999999994" width="25" height="24" as="geometry" />
        </mxCell>
        <mxCell id="IT4rPf45ZYRlz2UmnC27-18" value="" style="group" vertex="1" connectable="0" parent="1">
          <mxGeometry x="400" y="270" width="25" height="55.599999999999994" as="geometry" />
        </mxCell>
        <mxCell id="IT4rPf45ZYRlz2UmnC27-19" value="" style="aspect=fixed;sketch=0;html=1;dashed=0;whitespace=wrap;verticalLabelPosition=bottom;verticalAlign=top;fillColor=#2875E2;strokeColor=#ffffff;points=[[0.005,0.63,0],[0.1,0.2,0],[0.9,0.2,0],[0.5,0,0],[0.995,0.63,0],[0.72,0.99,0],[0.5,1,0],[0.28,0.99,0]];shape=mxgraph.kubernetes.icon2;prIcon=pod" vertex="1" parent="IT4rPf45ZYRlz2UmnC27-18">
          <mxGeometry width="25" height="24" as="geometry" />
        </mxCell>
        <mxCell id="IT4rPf45ZYRlz2UmnC27-20" value="" style="aspect=fixed;sketch=0;html=1;dashed=0;whitespace=wrap;verticalLabelPosition=bottom;verticalAlign=top;fillColor=#2875E2;strokeColor=#ffffff;points=[[0.005,0.63,0],[0.1,0.2,0],[0.9,0.2,0],[0.5,0,0],[0.995,0.63,0],[0.72,0.99,0],[0.5,1,0],[0.28,0.99,0]];shape=mxgraph.kubernetes.icon2;prIcon=pod" vertex="1" parent="IT4rPf45ZYRlz2UmnC27-18">
          <mxGeometry y="31.599999999999994" width="25" height="24" as="geometry" />
        </mxCell>
        <mxCell id="IT4rPf45ZYRlz2UmnC27-22" value="" style="group" vertex="1" connectable="0" parent="1">
          <mxGeometry x="400" y="380" width="25" height="55.599999999999994" as="geometry" />
        </mxCell>
        <mxCell id="IT4rPf45ZYRlz2UmnC27-23" value="" style="aspect=fixed;sketch=0;html=1;dashed=0;whitespace=wrap;verticalLabelPosition=bottom;verticalAlign=top;fillColor=#2875E2;strokeColor=#ffffff;points=[[0.005,0.63,0],[0.1,0.2,0],[0.9,0.2,0],[0.5,0,0],[0.995,0.63,0],[0.72,0.99,0],[0.5,1,0],[0.28,0.99,0]];shape=mxgraph.kubernetes.icon2;prIcon=pod" vertex="1" parent="IT4rPf45ZYRlz2UmnC27-22">
          <mxGeometry width="25" height="24" as="geometry" />
        </mxCell>
        <mxCell id="IT4rPf45ZYRlz2UmnC27-24" value="" style="aspect=fixed;sketch=0;html=1;dashed=0;whitespace=wrap;verticalLabelPosition=bottom;verticalAlign=top;fillColor=#2875E2;strokeColor=#ffffff;points=[[0.005,0.63,0],[0.1,0.2,0],[0.9,0.2,0],[0.5,0,0],[0.995,0.63,0],[0.72,0.99,0],[0.5,1,0],[0.28,0.99,0]];shape=mxgraph.kubernetes.icon2;prIcon=pod" vertex="1" parent="IT4rPf45ZYRlz2UmnC27-22">
          <mxGeometry y="31.599999999999994" width="25" height="24" as="geometry" />
        </mxCell>
        <mxCell id="IT4rPf45ZYRlz2UmnC27-25" value="" style="group" vertex="1" connectable="0" parent="1">
          <mxGeometry x="400" y="490" width="25" height="55.599999999999994" as="geometry" />
        </mxCell>
        <mxCell id="IT4rPf45ZYRlz2UmnC27-26" value="" style="aspect=fixed;sketch=0;html=1;dashed=0;whitespace=wrap;verticalLabelPosition=bottom;verticalAlign=top;fillColor=#2875E2;strokeColor=#ffffff;points=[[0.005,0.63,0],[0.1,0.2,0],[0.9,0.2,0],[0.5,0,0],[0.995,0.63,0],[0.72,0.99,0],[0.5,1,0],[0.28,0.99,0]];shape=mxgraph.kubernetes.icon2;prIcon=pod" vertex="1" parent="IT4rPf45ZYRlz2UmnC27-25">
          <mxGeometry width="25" height="24" as="geometry" />
        </mxCell>
        <mxCell id="IT4rPf45ZYRlz2UmnC27-27" value="" style="aspect=fixed;sketch=0;html=1;dashed=0;whitespace=wrap;verticalLabelPosition=bottom;verticalAlign=top;fillColor=#2875E2;strokeColor=#ffffff;points=[[0.005,0.63,0],[0.1,0.2,0],[0.9,0.2,0],[0.5,0,0],[0.995,0.63,0],[0.72,0.99,0],[0.5,1,0],[0.28,0.99,0]];shape=mxgraph.kubernetes.icon2;prIcon=pod" vertex="1" parent="IT4rPf45ZYRlz2UmnC27-25">
          <mxGeometry y="31.599999999999994" width="25" height="24" as="geometry" />
        </mxCell>
        <mxCell id="IT4rPf45ZYRlz2UmnC27-31" style="edgeStyle=orthogonalEdgeStyle;rounded=0;orthogonalLoop=1;jettySize=auto;html=1;entryX=0.005;entryY=0.63;entryDx=0;entryDy=0;entryPerimeter=0;" edge="1" parent="1" source="IT4rPf45ZYRlz2UmnC27-8" target="IT4rPf45ZYRlz2UmnC27-14">
          <mxGeometry relative="1" as="geometry" />
        </mxCell>
        <mxCell id="IT4rPf45ZYRlz2UmnC27-34" style="edgeStyle=orthogonalEdgeStyle;rounded=0;orthogonalLoop=1;jettySize=auto;html=1;entryX=0.005;entryY=0.63;entryDx=0;entryDy=0;entryPerimeter=0;" edge="1" parent="1" source="IT4rPf45ZYRlz2UmnC27-9" target="IT4rPf45ZYRlz2UmnC27-19">
          <mxGeometry relative="1" as="geometry" />
        </mxCell>
        <mxCell id="IT4rPf45ZYRlz2UmnC27-35" style="edgeStyle=orthogonalEdgeStyle;rounded=0;orthogonalLoop=1;jettySize=auto;html=1;entryX=0.005;entryY=0.63;entryDx=0;entryDy=0;entryPerimeter=0;" edge="1" parent="1" source="IT4rPf45ZYRlz2UmnC27-9" target="IT4rPf45ZYRlz2UmnC27-20">
          <mxGeometry relative="1" as="geometry" />
        </mxCell>
        <mxCell id="IT4rPf45ZYRlz2UmnC27-36" style="edgeStyle=orthogonalEdgeStyle;rounded=0;orthogonalLoop=1;jettySize=auto;html=1;entryX=0.005;entryY=0.63;entryDx=0;entryDy=0;entryPerimeter=0;" edge="1" parent="1" source="IT4rPf45ZYRlz2UmnC27-10" target="IT4rPf45ZYRlz2UmnC27-23">
          <mxGeometry relative="1" as="geometry" />
        </mxCell>
        <mxCell id="IT4rPf45ZYRlz2UmnC27-37" style="edgeStyle=orthogonalEdgeStyle;rounded=0;orthogonalLoop=1;jettySize=auto;html=1;entryX=0.005;entryY=0.63;entryDx=0;entryDy=0;entryPerimeter=0;" edge="1" parent="1" source="IT4rPf45ZYRlz2UmnC27-10" target="IT4rPf45ZYRlz2UmnC27-24">
          <mxGeometry relative="1" as="geometry" />
        </mxCell>
        <mxCell id="IT4rPf45ZYRlz2UmnC27-38" style="edgeStyle=orthogonalEdgeStyle;rounded=0;orthogonalLoop=1;jettySize=auto;html=1;entryX=0.005;entryY=0.63;entryDx=0;entryDy=0;entryPerimeter=0;" edge="1" parent="1" source="IT4rPf45ZYRlz2UmnC27-11" target="IT4rPf45ZYRlz2UmnC27-26">
          <mxGeometry relative="1" as="geometry" />
        </mxCell>
        <mxCell id="IT4rPf45ZYRlz2UmnC27-39" style="edgeStyle=orthogonalEdgeStyle;rounded=0;orthogonalLoop=1;jettySize=auto;html=1;entryX=0.005;entryY=0.63;entryDx=0;entryDy=0;entryPerimeter=0;" edge="1" parent="1" source="IT4rPf45ZYRlz2UmnC27-11" target="IT4rPf45ZYRlz2UmnC27-27">
          <mxGeometry relative="1" as="geometry" />
        </mxCell>
        <mxCell id="IT4rPf45ZYRlz2UmnC27-58" value="" style="group" vertex="1" connectable="0" parent="1">
          <mxGeometry x="499.16" y="160" width="105.83999999999997" height="55.60000000000002" as="geometry" />
        </mxCell>
        <mxCell id="IT4rPf45ZYRlz2UmnC27-51" value="" style="aspect=fixed;sketch=0;html=1;dashed=0;whitespace=wrap;verticalLabelPosition=bottom;verticalAlign=top;fillColor=#2875E2;strokeColor=#ffffff;points=[[0.005,0.63,0],[0.1,0.2,0],[0.9,0.2,0],[0.5,0,0],[0.995,0.63,0],[0.72,0.99,0],[0.5,1,0],[0.28,0.99,0]];shape=mxgraph.kubernetes.icon2;kubernetesLabel=1;prIcon=svc" vertex="1" parent="IT4rPf45ZYRlz2UmnC27-58">
          <mxGeometry y="10" width="41.67" height="40" as="geometry" />
        </mxCell>
        <mxCell id="IT4rPf45ZYRlz2UmnC27-53" value="" style="group" vertex="1" connectable="0" parent="IT4rPf45ZYRlz2UmnC27-58">
          <mxGeometry x="80.83999999999997" width="25" height="55.599999999999994" as="geometry" />
        </mxCell>
        <mxCell id="IT4rPf45ZYRlz2UmnC27-54" value="" style="aspect=fixed;sketch=0;html=1;dashed=0;whitespace=wrap;verticalLabelPosition=bottom;verticalAlign=top;fillColor=#2875E2;strokeColor=#ffffff;points=[[0.005,0.63,0],[0.1,0.2,0],[0.9,0.2,0],[0.5,0,0],[0.995,0.63,0],[0.72,0.99,0],[0.5,1,0],[0.28,0.99,0]];shape=mxgraph.kubernetes.icon2;prIcon=pod" vertex="1" parent="IT4rPf45ZYRlz2UmnC27-53">
          <mxGeometry width="25" height="24" as="geometry" />
        </mxCell>
        <mxCell id="IT4rPf45ZYRlz2UmnC27-55" value="" style="aspect=fixed;sketch=0;html=1;dashed=0;whitespace=wrap;verticalLabelPosition=bottom;verticalAlign=top;fillColor=#2875E2;strokeColor=#ffffff;points=[[0.005,0.63,0],[0.1,0.2,0],[0.9,0.2,0],[0.5,0,0],[0.995,0.63,0],[0.72,0.99,0],[0.5,1,0],[0.28,0.99,0]];shape=mxgraph.kubernetes.icon2;prIcon=pod" vertex="1" parent="IT4rPf45ZYRlz2UmnC27-53">
          <mxGeometry y="31.599999999999994" width="25" height="24" as="geometry" />
        </mxCell>
        <mxCell id="IT4rPf45ZYRlz2UmnC27-56" style="edgeStyle=orthogonalEdgeStyle;rounded=0;orthogonalLoop=1;jettySize=auto;html=1;entryX=0.005;entryY=0.63;entryDx=0;entryDy=0;entryPerimeter=0;" edge="1" parent="IT4rPf45ZYRlz2UmnC27-58" source="IT4rPf45ZYRlz2UmnC27-51" target="IT4rPf45ZYRlz2UmnC27-54">
          <mxGeometry relative="1" as="geometry" />
        </mxCell>
        <mxCell id="IT4rPf45ZYRlz2UmnC27-57" style="edgeStyle=orthogonalEdgeStyle;rounded=0;orthogonalLoop=1;jettySize=auto;html=1;entryX=0.005;entryY=0.63;entryDx=0;entryDy=0;entryPerimeter=0;" edge="1" parent="IT4rPf45ZYRlz2UmnC27-58" source="IT4rPf45ZYRlz2UmnC27-51" target="IT4rPf45ZYRlz2UmnC27-55">
          <mxGeometry relative="1" as="geometry" />
        </mxCell>
        <mxCell id="IT4rPf45ZYRlz2UmnC27-59" value="" style="group" vertex="1" connectable="0" parent="1">
          <mxGeometry x="499.16" y="270" width="105.83999999999997" height="55.60000000000002" as="geometry" />
        </mxCell>
        <mxCell id="IT4rPf45ZYRlz2UmnC27-60" value="" style="aspect=fixed;sketch=0;html=1;dashed=0;whitespace=wrap;verticalLabelPosition=bottom;verticalAlign=top;fillColor=#2875E2;strokeColor=#ffffff;points=[[0.005,0.63,0],[0.1,0.2,0],[0.9,0.2,0],[0.5,0,0],[0.995,0.63,0],[0.72,0.99,0],[0.5,1,0],[0.28,0.99,0]];shape=mxgraph.kubernetes.icon2;kubernetesLabel=1;prIcon=svc" vertex="1" parent="IT4rPf45ZYRlz2UmnC27-59">
          <mxGeometry y="10" width="41.67" height="40" as="geometry" />
        </mxCell>
        <mxCell id="IT4rPf45ZYRlz2UmnC27-61" value="" style="group" vertex="1" connectable="0" parent="IT4rPf45ZYRlz2UmnC27-59">
          <mxGeometry x="80.83999999999997" width="25" height="55.599999999999994" as="geometry" />
        </mxCell>
        <mxCell id="IT4rPf45ZYRlz2UmnC27-62" value="" style="aspect=fixed;sketch=0;html=1;dashed=0;whitespace=wrap;verticalLabelPosition=bottom;verticalAlign=top;fillColor=#2875E2;strokeColor=#ffffff;points=[[0.005,0.63,0],[0.1,0.2,0],[0.9,0.2,0],[0.5,0,0],[0.995,0.63,0],[0.72,0.99,0],[0.5,1,0],[0.28,0.99,0]];shape=mxgraph.kubernetes.icon2;prIcon=pod" vertex="1" parent="IT4rPf45ZYRlz2UmnC27-61">
          <mxGeometry width="25" height="24" as="geometry" />
        </mxCell>
        <mxCell id="IT4rPf45ZYRlz2UmnC27-63" value="" style="aspect=fixed;sketch=0;html=1;dashed=0;whitespace=wrap;verticalLabelPosition=bottom;verticalAlign=top;fillColor=#2875E2;strokeColor=#ffffff;points=[[0.005,0.63,0],[0.1,0.2,0],[0.9,0.2,0],[0.5,0,0],[0.995,0.63,0],[0.72,0.99,0],[0.5,1,0],[0.28,0.99,0]];shape=mxgraph.kubernetes.icon2;prIcon=pod" vertex="1" parent="IT4rPf45ZYRlz2UmnC27-61">
          <mxGeometry y="31.599999999999994" width="25" height="24" as="geometry" />
        </mxCell>
        <mxCell id="IT4rPf45ZYRlz2UmnC27-64" style="edgeStyle=orthogonalEdgeStyle;rounded=0;orthogonalLoop=1;jettySize=auto;html=1;entryX=0.005;entryY=0.63;entryDx=0;entryDy=0;entryPerimeter=0;" edge="1" parent="IT4rPf45ZYRlz2UmnC27-59" source="IT4rPf45ZYRlz2UmnC27-60" target="IT4rPf45ZYRlz2UmnC27-62">
          <mxGeometry relative="1" as="geometry" />
        </mxCell>
        <mxCell id="IT4rPf45ZYRlz2UmnC27-65" style="edgeStyle=orthogonalEdgeStyle;rounded=0;orthogonalLoop=1;jettySize=auto;html=1;entryX=0.005;entryY=0.63;entryDx=0;entryDy=0;entryPerimeter=0;" edge="1" parent="IT4rPf45ZYRlz2UmnC27-59" source="IT4rPf45ZYRlz2UmnC27-60" target="IT4rPf45ZYRlz2UmnC27-63">
          <mxGeometry relative="1" as="geometry" />
        </mxCell>
        <mxCell id="IT4rPf45ZYRlz2UmnC27-76" value="" style="group" vertex="1" connectable="0" parent="1">
          <mxGeometry x="499.16" y="490" width="105.83999999999997" height="55.60000000000002" as="geometry" />
        </mxCell>
        <mxCell id="IT4rPf45ZYRlz2UmnC27-77" value="" style="aspect=fixed;sketch=0;html=1;dashed=0;whitespace=wrap;verticalLabelPosition=bottom;verticalAlign=top;fillColor=#2875E2;strokeColor=#ffffff;points=[[0.005,0.63,0],[0.1,0.2,0],[0.9,0.2,0],[0.5,0,0],[0.995,0.63,0],[0.72,0.99,0],[0.5,1,0],[0.28,0.99,0]];shape=mxgraph.kubernetes.icon2;kubernetesLabel=1;prIcon=svc" vertex="1" parent="IT4rPf45ZYRlz2UmnC27-76">
          <mxGeometry y="10" width="41.67" height="40" as="geometry" />
        </mxCell>
        <mxCell id="IT4rPf45ZYRlz2UmnC27-78" value="" style="group" vertex="1" connectable="0" parent="IT4rPf45ZYRlz2UmnC27-76">
          <mxGeometry x="80.83999999999997" width="25" height="55.599999999999994" as="geometry" />
        </mxCell>
        <mxCell id="IT4rPf45ZYRlz2UmnC27-79" value="" style="aspect=fixed;sketch=0;html=1;dashed=0;whitespace=wrap;verticalLabelPosition=bottom;verticalAlign=top;fillColor=#2875E2;strokeColor=#ffffff;points=[[0.005,0.63,0],[0.1,0.2,0],[0.9,0.2,0],[0.5,0,0],[0.995,0.63,0],[0.72,0.99,0],[0.5,1,0],[0.28,0.99,0]];shape=mxgraph.kubernetes.icon2;prIcon=pod" vertex="1" parent="IT4rPf45ZYRlz2UmnC27-78">
          <mxGeometry width="25" height="24" as="geometry" />
        </mxCell>
        <mxCell id="IT4rPf45ZYRlz2UmnC27-80" value="" style="aspect=fixed;sketch=0;html=1;dashed=0;whitespace=wrap;verticalLabelPosition=bottom;verticalAlign=top;fillColor=#2875E2;strokeColor=#ffffff;points=[[0.005,0.63,0],[0.1,0.2,0],[0.9,0.2,0],[0.5,0,0],[0.995,0.63,0],[0.72,0.99,0],[0.5,1,0],[0.28,0.99,0]];shape=mxgraph.kubernetes.icon2;prIcon=pod" vertex="1" parent="IT4rPf45ZYRlz2UmnC27-78">
          <mxGeometry y="31.599999999999994" width="25" height="24" as="geometry" />
        </mxCell>
        <mxCell id="IT4rPf45ZYRlz2UmnC27-81" style="edgeStyle=orthogonalEdgeStyle;rounded=0;orthogonalLoop=1;jettySize=auto;html=1;entryX=0.005;entryY=0.63;entryDx=0;entryDy=0;entryPerimeter=0;" edge="1" parent="IT4rPf45ZYRlz2UmnC27-76" source="IT4rPf45ZYRlz2UmnC27-77" target="IT4rPf45ZYRlz2UmnC27-79">
          <mxGeometry relative="1" as="geometry" />
        </mxCell>
        <mxCell id="IT4rPf45ZYRlz2UmnC27-82" style="edgeStyle=orthogonalEdgeStyle;rounded=0;orthogonalLoop=1;jettySize=auto;html=1;entryX=0.005;entryY=0.63;entryDx=0;entryDy=0;entryPerimeter=0;" edge="1" parent="IT4rPf45ZYRlz2UmnC27-76" source="IT4rPf45ZYRlz2UmnC27-77" target="IT4rPf45ZYRlz2UmnC27-80">
          <mxGeometry relative="1" as="geometry" />
        </mxCell>
        <mxCell id="IT4rPf45ZYRlz2UmnC27-95" value="" style="group" vertex="1" connectable="0" parent="1">
          <mxGeometry x="500" y="380" width="105.83999999999997" height="55.60000000000002" as="geometry" />
        </mxCell>
        <mxCell id="IT4rPf45ZYRlz2UmnC27-96" value="" style="aspect=fixed;sketch=0;html=1;dashed=0;whitespace=wrap;verticalLabelPosition=bottom;verticalAlign=top;fillColor=#2875E2;strokeColor=#ffffff;points=[[0.005,0.63,0],[0.1,0.2,0],[0.9,0.2,0],[0.5,0,0],[0.995,0.63,0],[0.72,0.99,0],[0.5,1,0],[0.28,0.99,0]];shape=mxgraph.kubernetes.icon2;kubernetesLabel=1;prIcon=svc" vertex="1" parent="IT4rPf45ZYRlz2UmnC27-95">
          <mxGeometry y="10" width="41.67" height="40" as="geometry" />
        </mxCell>
        <mxCell id="IT4rPf45ZYRlz2UmnC27-97" value="" style="group" vertex="1" connectable="0" parent="IT4rPf45ZYRlz2UmnC27-95">
          <mxGeometry x="80.83999999999997" width="25" height="55.599999999999994" as="geometry" />
        </mxCell>
        <mxCell id="IT4rPf45ZYRlz2UmnC27-98" value="" style="aspect=fixed;sketch=0;html=1;dashed=0;whitespace=wrap;verticalLabelPosition=bottom;verticalAlign=top;fillColor=#2875E2;strokeColor=#ffffff;points=[[0.005,0.63,0],[0.1,0.2,0],[0.9,0.2,0],[0.5,0,0],[0.995,0.63,0],[0.72,0.99,0],[0.5,1,0],[0.28,0.99,0]];shape=mxgraph.kubernetes.icon2;prIcon=pod" vertex="1" parent="IT4rPf45ZYRlz2UmnC27-97">
          <mxGeometry width="25" height="24" as="geometry" />
        </mxCell>
        <mxCell id="IT4rPf45ZYRlz2UmnC27-99" value="" style="aspect=fixed;sketch=0;html=1;dashed=0;whitespace=wrap;verticalLabelPosition=bottom;verticalAlign=top;fillColor=#2875E2;strokeColor=#ffffff;points=[[0.005,0.63,0],[0.1,0.2,0],[0.9,0.2,0],[0.5,0,0],[0.995,0.63,0],[0.72,0.99,0],[0.5,1,0],[0.28,0.99,0]];shape=mxgraph.kubernetes.icon2;prIcon=pod" vertex="1" parent="IT4rPf45ZYRlz2UmnC27-97">
          <mxGeometry y="31.599999999999994" width="25" height="24" as="geometry" />
        </mxCell>
        <mxCell id="IT4rPf45ZYRlz2UmnC27-100" style="edgeStyle=orthogonalEdgeStyle;rounded=0;orthogonalLoop=1;jettySize=auto;html=1;entryX=0.005;entryY=0.63;entryDx=0;entryDy=0;entryPerimeter=0;" edge="1" parent="IT4rPf45ZYRlz2UmnC27-95" source="IT4rPf45ZYRlz2UmnC27-96" target="IT4rPf45ZYRlz2UmnC27-98">
          <mxGeometry relative="1" as="geometry" />
        </mxCell>
        <mxCell id="IT4rPf45ZYRlz2UmnC27-101" style="edgeStyle=orthogonalEdgeStyle;rounded=0;orthogonalLoop=1;jettySize=auto;html=1;entryX=0.005;entryY=0.63;entryDx=0;entryDy=0;entryPerimeter=0;" edge="1" parent="IT4rPf45ZYRlz2UmnC27-95" source="IT4rPf45ZYRlz2UmnC27-96" target="IT4rPf45ZYRlz2UmnC27-99">
          <mxGeometry relative="1" as="geometry" />
        </mxCell>
        <mxCell id="IT4rPf45ZYRlz2UmnC27-102" value="" style="group" vertex="1" connectable="0" parent="1">
          <mxGeometry x="500.00000000000006" y="600" width="105.83999999999997" height="55.60000000000002" as="geometry" />
        </mxCell>
        <mxCell id="IT4rPf45ZYRlz2UmnC27-103" value="" style="aspect=fixed;sketch=0;html=1;dashed=0;whitespace=wrap;verticalLabelPosition=bottom;verticalAlign=top;fillColor=#2875E2;strokeColor=#ffffff;points=[[0.005,0.63,0],[0.1,0.2,0],[0.9,0.2,0],[0.5,0,0],[0.995,0.63,0],[0.72,0.99,0],[0.5,1,0],[0.28,0.99,0]];shape=mxgraph.kubernetes.icon2;kubernetesLabel=1;prIcon=svc" vertex="1" parent="IT4rPf45ZYRlz2UmnC27-102">
          <mxGeometry y="10" width="41.67" height="40" as="geometry" />
        </mxCell>
        <mxCell id="IT4rPf45ZYRlz2UmnC27-104" value="" style="group" vertex="1" connectable="0" parent="IT4rPf45ZYRlz2UmnC27-102">
          <mxGeometry x="80.83999999999997" width="25" height="55.599999999999994" as="geometry" />
        </mxCell>
        <mxCell id="IT4rPf45ZYRlz2UmnC27-105" value="" style="aspect=fixed;sketch=0;html=1;dashed=0;whitespace=wrap;verticalLabelPosition=bottom;verticalAlign=top;fillColor=#2875E2;strokeColor=#ffffff;points=[[0.005,0.63,0],[0.1,0.2,0],[0.9,0.2,0],[0.5,0,0],[0.995,0.63,0],[0.72,0.99,0],[0.5,1,0],[0.28,0.99,0]];shape=mxgraph.kubernetes.icon2;prIcon=pod" vertex="1" parent="IT4rPf45ZYRlz2UmnC27-104">
          <mxGeometry width="25" height="24" as="geometry" />
        </mxCell>
        <mxCell id="IT4rPf45ZYRlz2UmnC27-106" value="" style="aspect=fixed;sketch=0;html=1;dashed=0;whitespace=wrap;verticalLabelPosition=bottom;verticalAlign=top;fillColor=#2875E2;strokeColor=#ffffff;points=[[0.005,0.63,0],[0.1,0.2,0],[0.9,0.2,0],[0.5,0,0],[0.995,0.63,0],[0.72,0.99,0],[0.5,1,0],[0.28,0.99,0]];shape=mxgraph.kubernetes.icon2;prIcon=pod" vertex="1" parent="IT4rPf45ZYRlz2UmnC27-104">
          <mxGeometry y="31.599999999999994" width="25" height="24" as="geometry" />
        </mxCell>
        <mxCell id="IT4rPf45ZYRlz2UmnC27-107" style="edgeStyle=orthogonalEdgeStyle;rounded=0;orthogonalLoop=1;jettySize=auto;html=1;entryX=0.005;entryY=0.63;entryDx=0;entryDy=0;entryPerimeter=0;" edge="1" parent="IT4rPf45ZYRlz2UmnC27-102" source="IT4rPf45ZYRlz2UmnC27-103" target="IT4rPf45ZYRlz2UmnC27-105">
          <mxGeometry relative="1" as="geometry" />
        </mxCell>
        <mxCell id="IT4rPf45ZYRlz2UmnC27-108" style="edgeStyle=orthogonalEdgeStyle;rounded=0;orthogonalLoop=1;jettySize=auto;html=1;entryX=0.005;entryY=0.63;entryDx=0;entryDy=0;entryPerimeter=0;" edge="1" parent="IT4rPf45ZYRlz2UmnC27-102" source="IT4rPf45ZYRlz2UmnC27-103" target="IT4rPf45ZYRlz2UmnC27-106">
          <mxGeometry relative="1" as="geometry" />
        </mxCell>
        <mxCell id="IT4rPf45ZYRlz2UmnC27-109" value="" style="group" vertex="1" connectable="0" parent="1">
          <mxGeometry x="500.00000000000006" y="710" width="105.83999999999997" height="55.60000000000002" as="geometry" />
        </mxCell>
        <mxCell id="IT4rPf45ZYRlz2UmnC27-110" value="" style="aspect=fixed;sketch=0;html=1;dashed=0;whitespace=wrap;verticalLabelPosition=bottom;verticalAlign=top;fillColor=#2875E2;strokeColor=#ffffff;points=[[0.005,0.63,0],[0.1,0.2,0],[0.9,0.2,0],[0.5,0,0],[0.995,0.63,0],[0.72,0.99,0],[0.5,1,0],[0.28,0.99,0]];shape=mxgraph.kubernetes.icon2;kubernetesLabel=1;prIcon=svc" vertex="1" parent="IT4rPf45ZYRlz2UmnC27-109">
          <mxGeometry y="10" width="41.67" height="40" as="geometry" />
        </mxCell>
        <mxCell id="IT4rPf45ZYRlz2UmnC27-111" value="" style="group" vertex="1" connectable="0" parent="IT4rPf45ZYRlz2UmnC27-109">
          <mxGeometry x="80.83999999999997" width="25" height="55.599999999999994" as="geometry" />
        </mxCell>
        <mxCell id="IT4rPf45ZYRlz2UmnC27-112" value="" style="aspect=fixed;sketch=0;html=1;dashed=0;whitespace=wrap;verticalLabelPosition=bottom;verticalAlign=top;fillColor=#2875E2;strokeColor=#ffffff;points=[[0.005,0.63,0],[0.1,0.2,0],[0.9,0.2,0],[0.5,0,0],[0.995,0.63,0],[0.72,0.99,0],[0.5,1,0],[0.28,0.99,0]];shape=mxgraph.kubernetes.icon2;prIcon=pod" vertex="1" parent="IT4rPf45ZYRlz2UmnC27-111">
          <mxGeometry width="25" height="24" as="geometry" />
        </mxCell>
        <mxCell id="IT4rPf45ZYRlz2UmnC27-113" value="" style="aspect=fixed;sketch=0;html=1;dashed=0;whitespace=wrap;verticalLabelPosition=bottom;verticalAlign=top;fillColor=#2875E2;strokeColor=#ffffff;points=[[0.005,0.63,0],[0.1,0.2,0],[0.9,0.2,0],[0.5,0,0],[0.995,0.63,0],[0.72,0.99,0],[0.5,1,0],[0.28,0.99,0]];shape=mxgraph.kubernetes.icon2;prIcon=pod" vertex="1" parent="IT4rPf45ZYRlz2UmnC27-111">
          <mxGeometry y="31.599999999999994" width="25" height="24" as="geometry" />
        </mxCell>
        <mxCell id="IT4rPf45ZYRlz2UmnC27-114" style="edgeStyle=orthogonalEdgeStyle;rounded=0;orthogonalLoop=1;jettySize=auto;html=1;entryX=0.005;entryY=0.63;entryDx=0;entryDy=0;entryPerimeter=0;" edge="1" parent="IT4rPf45ZYRlz2UmnC27-109" source="IT4rPf45ZYRlz2UmnC27-110" target="IT4rPf45ZYRlz2UmnC27-112">
          <mxGeometry relative="1" as="geometry" />
        </mxCell>
        <mxCell id="IT4rPf45ZYRlz2UmnC27-115" style="edgeStyle=orthogonalEdgeStyle;rounded=0;orthogonalLoop=1;jettySize=auto;html=1;entryX=0.005;entryY=0.63;entryDx=0;entryDy=0;entryPerimeter=0;" edge="1" parent="IT4rPf45ZYRlz2UmnC27-109" source="IT4rPf45ZYRlz2UmnC27-110" target="IT4rPf45ZYRlz2UmnC27-113">
          <mxGeometry relative="1" as="geometry" />
        </mxCell>
        <mxCell id="IT4rPf45ZYRlz2UmnC27-124" value="" style="group" vertex="1" connectable="0" parent="1">
          <mxGeometry x="850" y="260" width="105.83999999999997" height="55.60000000000002" as="geometry" />
        </mxCell>
        <mxCell id="IT4rPf45ZYRlz2UmnC27-125" value="" style="aspect=fixed;sketch=0;html=1;dashed=0;whitespace=wrap;verticalLabelPosition=bottom;verticalAlign=top;fillColor=#2875E2;strokeColor=#ffffff;points=[[0.005,0.63,0],[0.1,0.2,0],[0.9,0.2,0],[0.5,0,0],[0.995,0.63,0],[0.72,0.99,0],[0.5,1,0],[0.28,0.99,0]];shape=mxgraph.kubernetes.icon2;kubernetesLabel=1;prIcon=svc" vertex="1" parent="IT4rPf45ZYRlz2UmnC27-124">
          <mxGeometry y="10" width="41.67" height="40" as="geometry" />
        </mxCell>
        <mxCell id="IT4rPf45ZYRlz2UmnC27-126" value="" style="group" vertex="1" connectable="0" parent="IT4rPf45ZYRlz2UmnC27-124">
          <mxGeometry x="80.83999999999997" width="25" height="55.599999999999994" as="geometry" />
        </mxCell>
        <mxCell id="IT4rPf45ZYRlz2UmnC27-127" value="" style="aspect=fixed;sketch=0;html=1;dashed=0;whitespace=wrap;verticalLabelPosition=bottom;verticalAlign=top;fillColor=#2875E2;strokeColor=#ffffff;points=[[0.005,0.63,0],[0.1,0.2,0],[0.9,0.2,0],[0.5,0,0],[0.995,0.63,0],[0.72,0.99,0],[0.5,1,0],[0.28,0.99,0]];shape=mxgraph.kubernetes.icon2;prIcon=pod" vertex="1" parent="IT4rPf45ZYRlz2UmnC27-126">
          <mxGeometry width="25" height="24" as="geometry" />
        </mxCell>
        <mxCell id="IT4rPf45ZYRlz2UmnC27-128" value="" style="aspect=fixed;sketch=0;html=1;dashed=0;whitespace=wrap;verticalLabelPosition=bottom;verticalAlign=top;fillColor=#2875E2;strokeColor=#ffffff;points=[[0.005,0.63,0],[0.1,0.2,0],[0.9,0.2,0],[0.5,0,0],[0.995,0.63,0],[0.72,0.99,0],[0.5,1,0],[0.28,0.99,0]];shape=mxgraph.kubernetes.icon2;prIcon=pod" vertex="1" parent="IT4rPf45ZYRlz2UmnC27-126">
          <mxGeometry y="31.599999999999994" width="25" height="24" as="geometry" />
        </mxCell>
        <mxCell id="IT4rPf45ZYRlz2UmnC27-129" style="edgeStyle=orthogonalEdgeStyle;rounded=0;orthogonalLoop=1;jettySize=auto;html=1;entryX=0.005;entryY=0.63;entryDx=0;entryDy=0;entryPerimeter=0;" edge="1" parent="IT4rPf45ZYRlz2UmnC27-124" source="IT4rPf45ZYRlz2UmnC27-125" target="IT4rPf45ZYRlz2UmnC27-127">
          <mxGeometry relative="1" as="geometry" />
        </mxCell>
        <mxCell id="IT4rPf45ZYRlz2UmnC27-130" style="edgeStyle=orthogonalEdgeStyle;rounded=0;orthogonalLoop=1;jettySize=auto;html=1;entryX=0.005;entryY=0.63;entryDx=0;entryDy=0;entryPerimeter=0;" edge="1" parent="IT4rPf45ZYRlz2UmnC27-124" source="IT4rPf45ZYRlz2UmnC27-125" target="IT4rPf45ZYRlz2UmnC27-128">
          <mxGeometry relative="1" as="geometry" />
        </mxCell>
        <mxCell id="IT4rPf45ZYRlz2UmnC27-131" value="" style="group" vertex="1" connectable="0" parent="1">
          <mxGeometry x="850.0000000000001" y="370" width="105.83999999999997" height="55.60000000000002" as="geometry" />
        </mxCell>
        <mxCell id="IT4rPf45ZYRlz2UmnC27-132" value="" style="aspect=fixed;sketch=0;html=1;dashed=0;whitespace=wrap;verticalLabelPosition=bottom;verticalAlign=top;fillColor=#2875E2;strokeColor=#ffffff;points=[[0.005,0.63,0],[0.1,0.2,0],[0.9,0.2,0],[0.5,0,0],[0.995,0.63,0],[0.72,0.99,0],[0.5,1,0],[0.28,0.99,0]];shape=mxgraph.kubernetes.icon2;kubernetesLabel=1;prIcon=svc" vertex="1" parent="IT4rPf45ZYRlz2UmnC27-131">
          <mxGeometry y="10" width="41.67" height="40" as="geometry" />
        </mxCell>
        <mxCell id="IT4rPf45ZYRlz2UmnC27-133" value="" style="group" vertex="1" connectable="0" parent="IT4rPf45ZYRlz2UmnC27-131">
          <mxGeometry x="80.83999999999997" width="25" height="55.599999999999994" as="geometry" />
        </mxCell>
        <mxCell id="IT4rPf45ZYRlz2UmnC27-134" value="" style="aspect=fixed;sketch=0;html=1;dashed=0;whitespace=wrap;verticalLabelPosition=bottom;verticalAlign=top;fillColor=#2875E2;strokeColor=#ffffff;points=[[0.005,0.63,0],[0.1,0.2,0],[0.9,0.2,0],[0.5,0,0],[0.995,0.63,0],[0.72,0.99,0],[0.5,1,0],[0.28,0.99,0]];shape=mxgraph.kubernetes.icon2;prIcon=pod" vertex="1" parent="IT4rPf45ZYRlz2UmnC27-133">
          <mxGeometry width="25" height="24" as="geometry" />
        </mxCell>
        <mxCell id="IT4rPf45ZYRlz2UmnC27-135" value="" style="aspect=fixed;sketch=0;html=1;dashed=0;whitespace=wrap;verticalLabelPosition=bottom;verticalAlign=top;fillColor=#2875E2;strokeColor=#ffffff;points=[[0.005,0.63,0],[0.1,0.2,0],[0.9,0.2,0],[0.5,0,0],[0.995,0.63,0],[0.72,0.99,0],[0.5,1,0],[0.28,0.99,0]];shape=mxgraph.kubernetes.icon2;prIcon=pod" vertex="1" parent="IT4rPf45ZYRlz2UmnC27-133">
          <mxGeometry y="31.599999999999994" width="25" height="24" as="geometry" />
        </mxCell>
        <mxCell id="IT4rPf45ZYRlz2UmnC27-136" style="edgeStyle=orthogonalEdgeStyle;rounded=0;orthogonalLoop=1;jettySize=auto;html=1;entryX=0.005;entryY=0.63;entryDx=0;entryDy=0;entryPerimeter=0;" edge="1" parent="IT4rPf45ZYRlz2UmnC27-131" source="IT4rPf45ZYRlz2UmnC27-132" target="IT4rPf45ZYRlz2UmnC27-134">
          <mxGeometry relative="1" as="geometry" />
        </mxCell>
        <mxCell id="IT4rPf45ZYRlz2UmnC27-137" style="edgeStyle=orthogonalEdgeStyle;rounded=0;orthogonalLoop=1;jettySize=auto;html=1;entryX=0.005;entryY=0.63;entryDx=0;entryDy=0;entryPerimeter=0;" edge="1" parent="IT4rPf45ZYRlz2UmnC27-131" source="IT4rPf45ZYRlz2UmnC27-132" target="IT4rPf45ZYRlz2UmnC27-135">
          <mxGeometry relative="1" as="geometry" />
        </mxCell>
        <mxCell id="IT4rPf45ZYRlz2UmnC27-138" value="" style="group" vertex="1" connectable="0" parent="1">
          <mxGeometry x="850.0000000000001" y="490" width="105.83999999999997" height="55.60000000000002" as="geometry" />
        </mxCell>
        <mxCell id="IT4rPf45ZYRlz2UmnC27-139" value="" style="aspect=fixed;sketch=0;html=1;dashed=0;whitespace=wrap;verticalLabelPosition=bottom;verticalAlign=top;fillColor=#2875E2;strokeColor=#ffffff;points=[[0.005,0.63,0],[0.1,0.2,0],[0.9,0.2,0],[0.5,0,0],[0.995,0.63,0],[0.72,0.99,0],[0.5,1,0],[0.28,0.99,0]];shape=mxgraph.kubernetes.icon2;kubernetesLabel=1;prIcon=svc" vertex="1" parent="IT4rPf45ZYRlz2UmnC27-138">
          <mxGeometry y="10" width="41.67" height="40" as="geometry" />
        </mxCell>
        <mxCell id="IT4rPf45ZYRlz2UmnC27-140" value="" style="group" vertex="1" connectable="0" parent="IT4rPf45ZYRlz2UmnC27-138">
          <mxGeometry x="80.83999999999997" width="25" height="55.599999999999994" as="geometry" />
        </mxCell>
        <mxCell id="IT4rPf45ZYRlz2UmnC27-141" value="" style="aspect=fixed;sketch=0;html=1;dashed=0;whitespace=wrap;verticalLabelPosition=bottom;verticalAlign=top;fillColor=#2875E2;strokeColor=#ffffff;points=[[0.005,0.63,0],[0.1,0.2,0],[0.9,0.2,0],[0.5,0,0],[0.995,0.63,0],[0.72,0.99,0],[0.5,1,0],[0.28,0.99,0]];shape=mxgraph.kubernetes.icon2;prIcon=pod" vertex="1" parent="IT4rPf45ZYRlz2UmnC27-140">
          <mxGeometry width="25" height="24" as="geometry" />
        </mxCell>
        <mxCell id="IT4rPf45ZYRlz2UmnC27-142" value="" style="aspect=fixed;sketch=0;html=1;dashed=0;whitespace=wrap;verticalLabelPosition=bottom;verticalAlign=top;fillColor=#2875E2;strokeColor=#ffffff;points=[[0.005,0.63,0],[0.1,0.2,0],[0.9,0.2,0],[0.5,0,0],[0.995,0.63,0],[0.72,0.99,0],[0.5,1,0],[0.28,0.99,0]];shape=mxgraph.kubernetes.icon2;prIcon=pod" vertex="1" parent="IT4rPf45ZYRlz2UmnC27-140">
          <mxGeometry y="31.599999999999994" width="25" height="24" as="geometry" />
        </mxCell>
        <mxCell id="IT4rPf45ZYRlz2UmnC27-143" style="edgeStyle=orthogonalEdgeStyle;rounded=0;orthogonalLoop=1;jettySize=auto;html=1;entryX=0.005;entryY=0.63;entryDx=0;entryDy=0;entryPerimeter=0;" edge="1" parent="IT4rPf45ZYRlz2UmnC27-138" source="IT4rPf45ZYRlz2UmnC27-139" target="IT4rPf45ZYRlz2UmnC27-141">
          <mxGeometry relative="1" as="geometry" />
        </mxCell>
        <mxCell id="IT4rPf45ZYRlz2UmnC27-144" style="edgeStyle=orthogonalEdgeStyle;rounded=0;orthogonalLoop=1;jettySize=auto;html=1;entryX=0.005;entryY=0.63;entryDx=0;entryDy=0;entryPerimeter=0;" edge="1" parent="IT4rPf45ZYRlz2UmnC27-138" source="IT4rPf45ZYRlz2UmnC27-139" target="IT4rPf45ZYRlz2UmnC27-142">
          <mxGeometry relative="1" as="geometry" />
        </mxCell>
        <mxCell id="IT4rPf45ZYRlz2UmnC27-174" value="" style="group" vertex="1" connectable="0" parent="1">
          <mxGeometry x="1010.0000000000001" y="490.00000000000006" width="111.66999999999996" height="55.60000000000002" as="geometry" />
        </mxCell>
        <mxCell id="IT4rPf45ZYRlz2UmnC27-166" value="" style="aspect=fixed;sketch=0;html=1;dashed=0;whitespace=wrap;verticalLabelPosition=bottom;verticalAlign=top;fillColor=#2875E2;strokeColor=#ffffff;points=[[0.005,0.63,0],[0.1,0.2,0],[0.9,0.2,0],[0.5,0,0],[0.995,0.63,0],[0.72,0.99,0],[0.5,1,0],[0.28,0.99,0]];shape=mxgraph.kubernetes.icon2;kubernetesLabel=1;prIcon=svc" vertex="1" parent="IT4rPf45ZYRlz2UmnC27-174">
          <mxGeometry x="70" y="7.7999999999999545" width="41.67" height="40" as="geometry" />
        </mxCell>
        <mxCell id="IT4rPf45ZYRlz2UmnC27-167" value="" style="group" vertex="1" connectable="0" parent="IT4rPf45ZYRlz2UmnC27-174">
          <mxGeometry width="25" height="55.599999999999994" as="geometry" />
        </mxCell>
        <mxCell id="IT4rPf45ZYRlz2UmnC27-168" value="" style="aspect=fixed;sketch=0;html=1;dashed=0;whitespace=wrap;verticalLabelPosition=bottom;verticalAlign=top;fillColor=#2875E2;strokeColor=#ffffff;points=[[0.005,0.63,0],[0.1,0.2,0],[0.9,0.2,0],[0.5,0,0],[0.995,0.63,0],[0.72,0.99,0],[0.5,1,0],[0.28,0.99,0]];shape=mxgraph.kubernetes.icon2;prIcon=pod" vertex="1" parent="IT4rPf45ZYRlz2UmnC27-167">
          <mxGeometry width="25" height="24" as="geometry" />
        </mxCell>
        <mxCell id="IT4rPf45ZYRlz2UmnC27-169" value="" style="aspect=fixed;sketch=0;html=1;dashed=0;whitespace=wrap;verticalLabelPosition=bottom;verticalAlign=top;fillColor=#2875E2;strokeColor=#ffffff;points=[[0.005,0.63,0],[0.1,0.2,0],[0.9,0.2,0],[0.5,0,0],[0.995,0.63,0],[0.72,0.99,0],[0.5,1,0],[0.28,0.99,0]];shape=mxgraph.kubernetes.icon2;prIcon=pod" vertex="1" parent="IT4rPf45ZYRlz2UmnC27-167">
          <mxGeometry y="31.599999999999994" width="25" height="24" as="geometry" />
        </mxCell>
        <mxCell id="IT4rPf45ZYRlz2UmnC27-172" style="edgeStyle=orthogonalEdgeStyle;rounded=0;orthogonalLoop=1;jettySize=auto;html=1;entryX=0.995;entryY=0.63;entryDx=0;entryDy=0;entryPerimeter=0;" edge="1" parent="IT4rPf45ZYRlz2UmnC27-174" source="IT4rPf45ZYRlz2UmnC27-166" target="IT4rPf45ZYRlz2UmnC27-168">
          <mxGeometry relative="1" as="geometry">
            <Array as="points">
              <mxPoint x="49.999999999999886" y="27.799999999999955" />
              <mxPoint x="49.999999999999886" y="14.799999999999955" />
            </Array>
          </mxGeometry>
        </mxCell>
        <mxCell id="IT4rPf45ZYRlz2UmnC27-173" style="edgeStyle=orthogonalEdgeStyle;rounded=0;orthogonalLoop=1;jettySize=auto;html=1;entryX=0.995;entryY=0.63;entryDx=0;entryDy=0;entryPerimeter=0;" edge="1" parent="IT4rPf45ZYRlz2UmnC27-174" source="IT4rPf45ZYRlz2UmnC27-166" target="IT4rPf45ZYRlz2UmnC27-169">
          <mxGeometry relative="1" as="geometry">
            <Array as="points">
              <mxPoint x="49.999999999999886" y="27.799999999999955" />
              <mxPoint x="49.999999999999886" y="46.799999999999955" />
            </Array>
          </mxGeometry>
        </mxCell>
        <mxCell id="IT4rPf45ZYRlz2UmnC27-175" value="temporal.esd.local" style="aspect=fixed;sketch=0;html=1;dashed=0;whitespace=wrap;verticalLabelPosition=bottom;verticalAlign=top;fillColor=#2875E2;strokeColor=#ffffff;points=[[0.005,0.63,0],[0.1,0.2,0],[0.9,0.2,0],[0.5,0,0],[0.995,0.63,0],[0.72,0.99,0],[0.5,1,0],[0.28,0.99,0]];shape=mxgraph.kubernetes.icon2;prIcon=ing" vertex="1" parent="1">
          <mxGeometry x="1180" y="485" width="41.67" height="40" as="geometry" />
        </mxCell>
        <mxCell id="IT4rPf45ZYRlz2UmnC27-191" value="" style="group" vertex="1" connectable="0" parent="1">
          <mxGeometry x="830.0000000000001" y="680" width="149.15999999999997" height="24" as="geometry" />
        </mxCell>
        <mxCell id="IT4rPf45ZYRlz2UmnC27-178" value="" style="aspect=fixed;sketch=0;html=1;dashed=0;whitespace=wrap;verticalLabelPosition=bottom;verticalAlign=top;fillColor=#2875E2;strokeColor=#ffffff;points=[[0.005,0.63,0],[0.1,0.2,0],[0.9,0.2,0],[0.5,0,0],[0.995,0.63,0],[0.72,0.99,0],[0.5,1,0],[0.28,0.99,0]];shape=mxgraph.kubernetes.icon2;prIcon=pod" vertex="1" parent="IT4rPf45ZYRlz2UmnC27-191">
          <mxGeometry width="25" height="24" as="geometry" />
        </mxCell>
        <mxCell id="IT4rPf45ZYRlz2UmnC27-179" value="" style="aspect=fixed;sketch=0;html=1;dashed=0;whitespace=wrap;verticalLabelPosition=bottom;verticalAlign=top;fillColor=#2875E2;strokeColor=#ffffff;points=[[0.005,0.63,0],[0.1,0.2,0],[0.9,0.2,0],[0.5,0,0],[0.995,0.63,0],[0.72,0.99,0],[0.5,1,0],[0.28,0.99,0]];shape=mxgraph.kubernetes.icon2;prIcon=pod" vertex="1" parent="IT4rPf45ZYRlz2UmnC27-191">
          <mxGeometry x="29.159999999999968" width="25" height="24" as="geometry" />
        </mxCell>
        <mxCell id="IT4rPf45ZYRlz2UmnC27-180" value="" style="aspect=fixed;sketch=0;html=1;dashed=0;whitespace=wrap;verticalLabelPosition=bottom;verticalAlign=top;fillColor=#2875E2;strokeColor=#ffffff;points=[[0.005,0.63,0],[0.1,0.2,0],[0.9,0.2,0],[0.5,0,0],[0.995,0.63,0],[0.72,0.99,0],[0.5,1,0],[0.28,0.99,0]];shape=mxgraph.kubernetes.icon2;prIcon=pod" vertex="1" parent="IT4rPf45ZYRlz2UmnC27-191">
          <mxGeometry x="59.15999999999997" width="25" height="24" as="geometry" />
        </mxCell>
        <mxCell id="IT4rPf45ZYRlz2UmnC27-181" value="" style="aspect=fixed;sketch=0;html=1;dashed=0;whitespace=wrap;verticalLabelPosition=bottom;verticalAlign=top;fillColor=#2875E2;strokeColor=#ffffff;points=[[0.005,0.63,0],[0.1,0.2,0],[0.9,0.2,0],[0.5,0,0],[0.995,0.63,0],[0.72,0.99,0],[0.5,1,0],[0.28,0.99,0]];shape=mxgraph.kubernetes.icon2;prIcon=pod" vertex="1" parent="IT4rPf45ZYRlz2UmnC27-191">
          <mxGeometry x="89.15999999999997" width="25" height="24" as="geometry" />
        </mxCell>
        <mxCell id="IT4rPf45ZYRlz2UmnC27-182" value="" style="aspect=fixed;sketch=0;html=1;dashed=0;whitespace=wrap;verticalLabelPosition=bottom;verticalAlign=top;fillColor=#2875E2;strokeColor=#ffffff;points=[[0.005,0.63,0],[0.1,0.2,0],[0.9,0.2,0],[0.5,0,0],[0.995,0.63,0],[0.72,0.99,0],[0.5,1,0],[0.28,0.99,0]];shape=mxgraph.kubernetes.icon2;prIcon=pod" vertex="1" parent="IT4rPf45ZYRlz2UmnC27-191">
          <mxGeometry x="124.15999999999997" width="25" height="24" as="geometry" />
        </mxCell>
        <mxCell id="IT4rPf45ZYRlz2UmnC27-45" value="groups" style="" parent="0" />
        <mxCell id="IT4rPf45ZYRlz2UmnC27-46" value="esd-admin-frontend" style="fillColor=none;strokeColor=#5A6C86;dashed=1;verticalAlign=top;fontStyle=0;fontColor=#5A6C86;whiteSpace=wrap;html=1;" vertex="1" parent="IT4rPf45ZYRlz2UmnC27-45">
          <mxGeometry x="250" y="130" width="180" height="90" as="geometry" />
        </mxCell>
        <mxCell id="IT4rPf45ZYRlz2UmnC27-47" value="esd-customer-frontend" style="fillColor=none;strokeColor=#5A6C86;dashed=1;verticalAlign=top;fontStyle=0;fontColor=#5A6C86;whiteSpace=wrap;html=1;" vertex="1" parent="IT4rPf45ZYRlz2UmnC27-45">
          <mxGeometry x="250" y="240" width="180" height="90" as="geometry" />
        </mxCell>
        <mxCell id="IT4rPf45ZYRlz2UmnC27-48" value="esd-driver-frontend" style="fillColor=none;strokeColor=#5A6C86;dashed=1;verticalAlign=top;fontStyle=0;fontColor=#5A6C86;whiteSpace=wrap;html=1;" vertex="1" parent="IT4rPf45ZYRlz2UmnC27-45">
          <mxGeometry x="250" y="350" width="180" height="90" as="geometry" />
        </mxCell>
        <mxCell id="IT4rPf45ZYRlz2UmnC27-116" style="edgeStyle=orthogonalEdgeStyle;rounded=0;orthogonalLoop=1;jettySize=auto;html=1;entryX=0;entryY=0.5;entryDx=0;entryDy=0;" edge="1" parent="IT4rPf45ZYRlz2UmnC27-45" source="IT4rPf45ZYRlz2UmnC27-49" target="IT4rPf45ZYRlz2UmnC27-67">
          <mxGeometry relative="1" as="geometry" />
        </mxCell>
        <mxCell id="IT4rPf45ZYRlz2UmnC27-117" style="edgeStyle=orthogonalEdgeStyle;rounded=0;orthogonalLoop=1;jettySize=auto;html=1;entryX=0;entryY=0.5;entryDx=0;entryDy=0;" edge="1" parent="IT4rPf45ZYRlz2UmnC27-45" source="IT4rPf45ZYRlz2UmnC27-49" target="IT4rPf45ZYRlz2UmnC27-66">
          <mxGeometry relative="1" as="geometry" />
        </mxCell>
        <mxCell id="IT4rPf45ZYRlz2UmnC27-118" style="edgeStyle=orthogonalEdgeStyle;rounded=0;orthogonalLoop=1;jettySize=auto;html=1;entryX=0;entryY=0.5;entryDx=0;entryDy=0;" edge="1" parent="IT4rPf45ZYRlz2UmnC27-45" source="IT4rPf45ZYRlz2UmnC27-49" target="IT4rPf45ZYRlz2UmnC27-93">
          <mxGeometry relative="1" as="geometry" />
        </mxCell>
        <mxCell id="IT4rPf45ZYRlz2UmnC27-119" style="edgeStyle=orthogonalEdgeStyle;rounded=0;orthogonalLoop=1;jettySize=auto;html=1;entryX=0;entryY=0.5;entryDx=0;entryDy=0;" edge="1" parent="IT4rPf45ZYRlz2UmnC27-45" source="IT4rPf45ZYRlz2UmnC27-49" target="IT4rPf45ZYRlz2UmnC27-94">
          <mxGeometry relative="1" as="geometry" />
        </mxCell>
        <mxCell id="IT4rPf45ZYRlz2UmnC27-120" style="edgeStyle=orthogonalEdgeStyle;rounded=0;orthogonalLoop=1;jettySize=auto;html=1;entryX=0;entryY=0.5;entryDx=0;entryDy=0;" edge="1" parent="IT4rPf45ZYRlz2UmnC27-45" source="IT4rPf45ZYRlz2UmnC27-49" target="IT4rPf45ZYRlz2UmnC27-91">
          <mxGeometry relative="1" as="geometry" />
        </mxCell>
        <mxCell id="IT4rPf45ZYRlz2UmnC27-121" style="edgeStyle=orthogonalEdgeStyle;rounded=0;orthogonalLoop=1;jettySize=auto;html=1;entryX=0;entryY=0.5;entryDx=0;entryDy=0;" edge="1" parent="IT4rPf45ZYRlz2UmnC27-45" source="IT4rPf45ZYRlz2UmnC27-49" target="IT4rPf45ZYRlz2UmnC27-92">
          <mxGeometry relative="1" as="geometry" />
        </mxCell>
        <mxCell id="IT4rPf45ZYRlz2UmnC27-49" value="esd-nginx" style="fillColor=none;strokeColor=#5A6C86;dashed=1;verticalAlign=top;fontStyle=0;fontColor=#5A6C86;whiteSpace=wrap;html=1;" vertex="1" parent="IT4rPf45ZYRlz2UmnC27-45">
          <mxGeometry x="250" y="460" width="180" height="90" as="geometry" />
        </mxCell>
        <mxCell id="IT4rPf45ZYRlz2UmnC27-66" value="chatbot" style="fillColor=none;strokeColor=#5A6C86;dashed=1;verticalAlign=top;fontStyle=0;fontColor=#5A6C86;whiteSpace=wrap;html=1;" vertex="1" parent="IT4rPf45ZYRlz2UmnC27-45">
          <mxGeometry x="490" y="240" width="120" height="90" as="geometry" />
        </mxCell>
        <mxCell id="IT4rPf45ZYRlz2UmnC27-149" style="edgeStyle=orthogonalEdgeStyle;rounded=0;orthogonalLoop=1;jettySize=auto;html=1;entryX=0;entryY=0.5;entryDx=0;entryDy=0;fillColor=#e51400;strokeColor=#B20000;" edge="1" parent="IT4rPf45ZYRlz2UmnC27-45" source="IT4rPf45ZYRlz2UmnC27-67" target="IT4rPf45ZYRlz2UmnC27-84">
          <mxGeometry relative="1" as="geometry">
            <Array as="points">
              <mxPoint x="790" y="175" />
              <mxPoint x="790" y="505" />
            </Array>
          </mxGeometry>
        </mxCell>
        <mxCell id="IT4rPf45ZYRlz2UmnC27-154" style="edgeStyle=orthogonalEdgeStyle;rounded=0;orthogonalLoop=1;jettySize=auto;html=1;entryX=0;entryY=0.5;entryDx=0;entryDy=0;" edge="1" parent="IT4rPf45ZYRlz2UmnC27-45" source="IT4rPf45ZYRlz2UmnC27-67" target="IT4rPf45ZYRlz2UmnC27-153">
          <mxGeometry relative="1" as="geometry">
            <Array as="points">
              <mxPoint x="750" y="200" />
              <mxPoint x="750" y="320" />
            </Array>
          </mxGeometry>
        </mxCell>
        <mxCell id="IT4rPf45ZYRlz2UmnC27-67" value="auth" style="fillColor=none;strokeColor=#5A6C86;dashed=1;verticalAlign=top;fontStyle=0;fontColor=#5A6C86;whiteSpace=wrap;html=1;" vertex="1" parent="IT4rPf45ZYRlz2UmnC27-45">
          <mxGeometry x="490" y="130" width="120" height="90" as="geometry" />
        </mxCell>
        <mxCell id="IT4rPf45ZYRlz2UmnC27-84" value="temporal" style="fillColor=none;strokeColor=#5A6C86;dashed=1;verticalAlign=top;fontStyle=0;fontColor=#5A6C86;whiteSpace=wrap;html=1;" vertex="1" parent="IT4rPf45ZYRlz2UmnC27-45">
          <mxGeometry x="845" y="460" width="120" height="90" as="geometry" />
        </mxCell>
        <mxCell id="IT4rPf45ZYRlz2UmnC27-146" style="edgeStyle=orthogonalEdgeStyle;rounded=0;orthogonalLoop=1;jettySize=auto;html=1;entryX=0;entryY=0.5;entryDx=0;entryDy=0;fillColor=#e51400;strokeColor=#B20000;" edge="1" parent="IT4rPf45ZYRlz2UmnC27-45" source="IT4rPf45ZYRlz2UmnC27-91" target="IT4rPf45ZYRlz2UmnC27-84">
          <mxGeometry relative="1" as="geometry">
            <Array as="points">
              <mxPoint x="790" y="615" />
              <mxPoint x="790" y="505" />
            </Array>
          </mxGeometry>
        </mxCell>
        <mxCell id="IT4rPf45ZYRlz2UmnC27-158" style="edgeStyle=orthogonalEdgeStyle;rounded=0;orthogonalLoop=1;jettySize=auto;html=1;entryX=0;entryY=0.5;entryDx=0;entryDy=0;" edge="1" parent="IT4rPf45ZYRlz2UmnC27-45" source="IT4rPf45ZYRlz2UmnC27-91" target="IT4rPf45ZYRlz2UmnC27-153">
          <mxGeometry relative="1" as="geometry">
            <Array as="points">
              <mxPoint x="750" y="590" />
              <mxPoint x="750" y="320" />
            </Array>
          </mxGeometry>
        </mxCell>
        <mxCell id="IT4rPf45ZYRlz2UmnC27-91" value="notification" style="fillColor=none;strokeColor=#5A6C86;dashed=1;verticalAlign=top;fontStyle=0;fontColor=#5A6C86;whiteSpace=wrap;html=1;" vertex="1" parent="IT4rPf45ZYRlz2UmnC27-45">
          <mxGeometry x="492.08" y="570" width="120" height="90" as="geometry" />
        </mxCell>
        <mxCell id="IT4rPf45ZYRlz2UmnC27-145" style="edgeStyle=orthogonalEdgeStyle;rounded=0;orthogonalLoop=1;jettySize=auto;html=1;entryX=0;entryY=0.5;entryDx=0;entryDy=0;fillColor=#e51400;strokeColor=#B20000;" edge="1" parent="IT4rPf45ZYRlz2UmnC27-45" source="IT4rPf45ZYRlz2UmnC27-92" target="IT4rPf45ZYRlz2UmnC27-84">
          <mxGeometry relative="1" as="geometry">
            <Array as="points">
              <mxPoint x="790" y="725" />
              <mxPoint x="790" y="505" />
            </Array>
          </mxGeometry>
        </mxCell>
        <mxCell id="IT4rPf45ZYRlz2UmnC27-159" style="edgeStyle=orthogonalEdgeStyle;rounded=0;orthogonalLoop=1;jettySize=auto;html=1;entryX=0;entryY=0.5;entryDx=0;entryDy=0;" edge="1" parent="IT4rPf45ZYRlz2UmnC27-45" source="IT4rPf45ZYRlz2UmnC27-92" target="IT4rPf45ZYRlz2UmnC27-153">
          <mxGeometry relative="1" as="geometry">
            <Array as="points">
              <mxPoint x="750" y="700" />
              <mxPoint x="750" y="320" />
            </Array>
          </mxGeometry>
        </mxCell>
        <mxCell id="IT4rPf45ZYRlz2UmnC27-92" value="order" style="fillColor=none;strokeColor=#5A6C86;dashed=1;verticalAlign=top;fontStyle=0;fontColor=#5A6C86;whiteSpace=wrap;html=1;" vertex="1" parent="IT4rPf45ZYRlz2UmnC27-45">
          <mxGeometry x="492.0799999999999" y="680" width="120" height="90" as="geometry" />
        </mxCell>
        <mxCell id="IT4rPf45ZYRlz2UmnC27-148" style="edgeStyle=orthogonalEdgeStyle;rounded=0;orthogonalLoop=1;jettySize=auto;html=1;entryX=0;entryY=0.5;entryDx=0;entryDy=0;fillColor=#e51400;strokeColor=#B20000;" edge="1" parent="IT4rPf45ZYRlz2UmnC27-45" source="IT4rPf45ZYRlz2UmnC27-93" target="IT4rPf45ZYRlz2UmnC27-84">
          <mxGeometry relative="1" as="geometry">
            <Array as="points">
              <mxPoint x="790" y="395" />
              <mxPoint x="790" y="505" />
            </Array>
          </mxGeometry>
        </mxCell>
        <mxCell id="IT4rPf45ZYRlz2UmnC27-156" style="edgeStyle=orthogonalEdgeStyle;rounded=0;orthogonalLoop=1;jettySize=auto;html=1;entryX=0;entryY=0.5;entryDx=0;entryDy=0;" edge="1" parent="IT4rPf45ZYRlz2UmnC27-45" source="IT4rPf45ZYRlz2UmnC27-93" target="IT4rPf45ZYRlz2UmnC27-153">
          <mxGeometry relative="1" as="geometry">
            <Array as="points">
              <mxPoint x="750" y="370" />
              <mxPoint x="750" y="320" />
            </Array>
          </mxGeometry>
        </mxCell>
        <mxCell id="IT4rPf45ZYRlz2UmnC27-93" value="driver" style="fillColor=none;strokeColor=#5A6C86;dashed=1;verticalAlign=top;fontStyle=0;fontColor=#5A6C86;whiteSpace=wrap;html=1;" vertex="1" parent="IT4rPf45ZYRlz2UmnC27-45">
          <mxGeometry x="490" y="350" width="120" height="90" as="geometry" />
        </mxCell>
        <mxCell id="IT4rPf45ZYRlz2UmnC27-147" style="edgeStyle=orthogonalEdgeStyle;rounded=0;orthogonalLoop=1;jettySize=auto;html=1;fillColor=#e51400;strokeColor=#B20000;" edge="1" parent="IT4rPf45ZYRlz2UmnC27-45" source="IT4rPf45ZYRlz2UmnC27-94" target="IT4rPf45ZYRlz2UmnC27-84">
          <mxGeometry relative="1" as="geometry" />
        </mxCell>
        <mxCell id="IT4rPf45ZYRlz2UmnC27-157" style="edgeStyle=orthogonalEdgeStyle;rounded=0;orthogonalLoop=1;jettySize=auto;html=1;entryX=0;entryY=0.5;entryDx=0;entryDy=0;" edge="1" parent="IT4rPf45ZYRlz2UmnC27-45" source="IT4rPf45ZYRlz2UmnC27-94" target="IT4rPf45ZYRlz2UmnC27-153">
          <mxGeometry relative="1" as="geometry">
            <Array as="points">
              <mxPoint x="750" y="480" />
              <mxPoint x="750" y="320" />
            </Array>
          </mxGeometry>
        </mxCell>
        <mxCell id="IT4rPf45ZYRlz2UmnC27-94" value="invoice" style="fillColor=none;strokeColor=#5A6C86;dashed=1;verticalAlign=top;fontStyle=0;fontColor=#5A6C86;whiteSpace=wrap;html=1;" vertex="1" parent="IT4rPf45ZYRlz2UmnC27-45">
          <mxGeometry x="492.08" y="460" width="120" height="90" as="geometry" />
        </mxCell>
        <mxCell id="IT4rPf45ZYRlz2UmnC27-122" value="postgres-rw" style="fillColor=none;strokeColor=#5A6C86;dashed=1;verticalAlign=top;fontStyle=0;fontColor=#5A6C86;whiteSpace=wrap;html=1;" vertex="1" parent="IT4rPf45ZYRlz2UmnC27-45">
          <mxGeometry x="840" y="340" width="120" height="90" as="geometry" />
        </mxCell>
        <mxCell id="IT4rPf45ZYRlz2UmnC27-123" value="postgres-r" style="fillColor=none;strokeColor=#5A6C86;dashed=1;verticalAlign=top;fontStyle=0;fontColor=#5A6C86;whiteSpace=wrap;html=1;" vertex="1" parent="IT4rPf45ZYRlz2UmnC27-45">
          <mxGeometry x="840" y="230" width="120" height="90" as="geometry" />
        </mxCell>
        <mxCell id="IT4rPf45ZYRlz2UmnC27-153" value="postgres" style="fillColor=none;strokeColor=#5A6C86;dashed=1;verticalAlign=top;fontStyle=0;fontColor=#5A6C86;whiteSpace=wrap;html=1;" vertex="1" parent="IT4rPf45ZYRlz2UmnC27-45">
          <mxGeometry x="830" y="200" width="140" height="240" as="geometry" />
        </mxCell>
        <mxCell id="IT4rPf45ZYRlz2UmnC27-163" style="edgeStyle=orthogonalEdgeStyle;rounded=0;orthogonalLoop=1;jettySize=auto;html=1;entryX=1;entryY=0.5;entryDx=0;entryDy=0;" edge="1" parent="IT4rPf45ZYRlz2UmnC27-45" source="IT4rPf45ZYRlz2UmnC27-162" target="IT4rPf45ZYRlz2UmnC27-84">
          <mxGeometry relative="1" as="geometry" />
        </mxCell>
        <mxCell id="IT4rPf45ZYRlz2UmnC27-162" value="temporal-ui" style="fillColor=none;strokeColor=#5A6C86;dashed=1;verticalAlign=top;fontStyle=0;fontColor=#5A6C86;whiteSpace=wrap;html=1;" vertex="1" parent="IT4rPf45ZYRlz2UmnC27-45">
          <mxGeometry x="1005" y="460" width="130" height="90" as="geometry" />
        </mxCell>
        <mxCell id="IT4rPf45ZYRlz2UmnC27-185" style="edgeStyle=orthogonalEdgeStyle;rounded=0;orthogonalLoop=1;jettySize=auto;html=1;entryX=1;entryY=0.75;entryDx=0;entryDy=0;fillColor=#008a00;strokeColor=#005700;" edge="1" parent="IT4rPf45ZYRlz2UmnC27-45" source="IT4rPf45ZYRlz2UmnC27-177" target="IT4rPf45ZYRlz2UmnC27-92">
          <mxGeometry relative="1" as="geometry">
            <Array as="points">
              <mxPoint x="700" y="685" />
              <mxPoint x="700" y="748" />
            </Array>
          </mxGeometry>
        </mxCell>
        <mxCell id="IT4rPf45ZYRlz2UmnC27-186" style="edgeStyle=orthogonalEdgeStyle;rounded=0;orthogonalLoop=1;jettySize=auto;html=1;entryX=1;entryY=0.75;entryDx=0;entryDy=0;fillColor=#60a917;strokeColor=#2D7600;exitX=0;exitY=0.5;exitDx=0;exitDy=0;" edge="1" parent="IT4rPf45ZYRlz2UmnC27-45" source="IT4rPf45ZYRlz2UmnC27-177" target="IT4rPf45ZYRlz2UmnC27-91">
          <mxGeometry relative="1" as="geometry">
            <Array as="points">
              <mxPoint x="700" y="685" />
              <mxPoint x="700" y="638" />
            </Array>
          </mxGeometry>
        </mxCell>
        <mxCell id="IT4rPf45ZYRlz2UmnC27-187" style="edgeStyle=orthogonalEdgeStyle;rounded=0;orthogonalLoop=1;jettySize=auto;html=1;entryX=1;entryY=0.75;entryDx=0;entryDy=0;fillColor=#60a917;strokeColor=#2D7600;exitX=0;exitY=0.5;exitDx=0;exitDy=0;" edge="1" parent="IT4rPf45ZYRlz2UmnC27-45" source="IT4rPf45ZYRlz2UmnC27-177" target="IT4rPf45ZYRlz2UmnC27-94">
          <mxGeometry relative="1" as="geometry">
            <Array as="points">
              <mxPoint x="700" y="685" />
              <mxPoint x="700" y="528" />
            </Array>
          </mxGeometry>
        </mxCell>
        <mxCell id="IT4rPf45ZYRlz2UmnC27-189" style="edgeStyle=orthogonalEdgeStyle;rounded=0;orthogonalLoop=1;jettySize=auto;html=1;entryX=1;entryY=1;entryDx=0;entryDy=0;fillColor=#60a917;strokeColor=#2D7600;exitX=0;exitY=0.5;exitDx=0;exitDy=0;" edge="1" parent="IT4rPf45ZYRlz2UmnC27-45" source="IT4rPf45ZYRlz2UmnC27-177" target="IT4rPf45ZYRlz2UmnC27-67">
          <mxGeometry relative="1" as="geometry">
            <Array as="points">
              <mxPoint x="700" y="685" />
              <mxPoint x="700" y="220" />
            </Array>
          </mxGeometry>
        </mxCell>
        <mxCell id="IT4rPf45ZYRlz2UmnC27-190" style="edgeStyle=orthogonalEdgeStyle;rounded=0;orthogonalLoop=1;jettySize=auto;html=1;entryX=0.5;entryY=1;entryDx=0;entryDy=0;fillColor=#e51400;strokeColor=#B20000;startArrow=classic;startFill=1;" edge="1" parent="IT4rPf45ZYRlz2UmnC27-45" source="IT4rPf45ZYRlz2UmnC27-177" target="IT4rPf45ZYRlz2UmnC27-84">
          <mxGeometry relative="1" as="geometry" />
        </mxCell>
        <mxCell id="IT4rPf45ZYRlz2UmnC27-177" value="temporal-runners" style="fillColor=none;strokeColor=#5A6C86;dashed=1;verticalAlign=top;fontStyle=0;fontColor=#5A6C86;whiteSpace=wrap;html=1;" vertex="1" parent="IT4rPf45ZYRlz2UmnC27-45">
          <mxGeometry x="820" y="650" width="170" height="70" as="geometry" />
        </mxCell>
        <mxCell id="IT4rPf45ZYRlz2UmnC27-188" style="edgeStyle=orthogonalEdgeStyle;rounded=0;orthogonalLoop=1;jettySize=auto;html=1;entryX=1;entryY=0.75;entryDx=0;entryDy=0;fillColor=#60a917;strokeColor=#2D7600;exitX=0;exitY=0.5;exitDx=0;exitDy=0;" edge="1" parent="IT4rPf45ZYRlz2UmnC27-45" source="IT4rPf45ZYRlz2UmnC27-177" target="IT4rPf45ZYRlz2UmnC27-93">
          <mxGeometry relative="1" as="geometry">
            <Array as="points">
              <mxPoint x="700" y="685" />
              <mxPoint x="700" y="418" />
              <mxPoint x="610" y="418" />
            </Array>
          </mxGeometry>
        </mxCell>
      </root>
    </mxGraphModel>
  </diagram>
</mxfile>
